<svg version="1.1" id="Layer_1" xmlns="http://www.w3.org/2000/svg" xmlns:xlink="http://www.w3.org/1999/xlink" x="0px" y="0px"
	 width="100%" viewBox="0 0 225 225" enable-background="new 0 0 225 225" xml:space="preserve">
<path fill="#040404" opacity="1.000000" stroke="none" 
	d="
M121.000000,226.000000 
	C115.645073,226.000000 110.290138,226.000000 104.344933,225.638596 
	C69.741745,218.838150 48.872536,187.542068 54.922298,154.487213 
	C55.179661,153.081024 54.069847,150.803391 52.868248,149.853394 
	C45.696808,144.183563 38.394684,138.667572 30.951900,133.358627 
	C28.358725,131.508911 27.440262,129.549316 27.459799,126.362259 
	C27.605814,102.543503 27.512787,78.723381 27.557741,54.903809 
	C27.568975,48.951393 25.734543,41.607922 28.529638,37.438919 
	C31.319788,33.277302 38.829887,32.241863 44.309883,29.928623 
	C67.198570,20.266750 90.101982,10.639771 113.000000,1.000000 
	C113.000000,1.000000 113.500000,1.000000 113.989059,1.263407 
	C141.720810,12.865410 168.945129,24.248680 196.235397,35.471588 
	C198.884171,36.560871 199.534683,37.928509 199.524994,40.634647 
	C199.421677,69.454254 199.525787,98.274826 199.321823,127.093361 
	C199.307465,129.122055 197.786423,131.727524 196.147797,133.054153 
	C189.561752,138.386200 182.829285,143.582886 175.791626,148.292709 
	C172.194260,150.700195 171.498322,153.222870 172.124619,157.244888 
	C176.543228,185.620209 160.931366,212.120453 133.982605,222.132278 
	C129.759033,223.701385 125.332619,224.724457 121.000000,226.000000 
M146.477386,29.036085 
	C136.536880,24.898321 126.642754,20.641699 116.614212,16.729635 
	C114.754623,16.004225 112.106232,16.047567 110.241966,16.790377 
	C97.936920,21.693291 85.747765,26.886934 73.518768,31.980852 
	C65.449799,35.341934 57.377350,38.694687 48.801769,42.261059 
	C70.002029,54.647141 90.591423,66.726814 111.280762,78.632805 
	C112.464996,79.314285 114.774895,79.126465 116.037102,78.414558 
	C126.577271,72.469627 136.995590,66.308594 147.448593,60.209232 
	C157.489487,54.350349 167.527908,48.487255 178.162872,42.278374 
	C167.333481,37.724178 157.273163,33.493412 146.477386,29.036085 
M40.635529,56.939896 
	C40.635502,77.911446 40.708511,98.883522 40.557903,119.853989 
	C40.534908,123.055977 41.570904,124.916183 44.122780,126.806473 
	C63.482513,141.147079 82.709076,155.667450 101.985100,170.121185 
	C103.449020,171.218872 104.974045,172.235077 106.972488,173.642593 
	C106.972488,146.662643 106.907829,120.698830 107.063393,94.736343 
	C107.080673,91.851318 105.821342,90.702576 103.678543,89.462242 
	C84.295013,78.242386 64.955917,66.945778 45.604099,55.671131 
	C44.113132,54.802471 42.624496,53.929817 40.784355,52.854187 
	C40.712559,54.398533 40.674183,55.224026 40.635529,56.939896 
M132.760269,164.271484 
	C149.520370,151.707672 166.236862,139.084778 183.089355,126.646172 
	C185.513199,124.857155 186.444580,123.061028 186.427856,120.083290 
	C186.308960,98.934868 186.367523,77.785469 186.355362,56.636379 
	C186.354752,55.559086 186.223495,54.481861 186.134781,53.124851 
	C185.161530,53.560738 184.555984,53.767853 184.013977,54.083935 
	C163.366653,66.124870 142.696411,78.127449 122.154213,90.345314 
	C120.919426,91.079727 120.126457,93.539215 120.116402,95.201973 
	C119.983505,117.182907 120.028000,139.164902 120.028145,161.146637 
	C120.028168,165.063675 120.028145,168.980713 120.028145,173.747849 
	C124.582062,170.377594 128.396088,167.554916 132.760269,164.271484 
M106.440849,212.139679 
	C135.816071,217.559326 164.553574,189.985168 159.159592,160.956924 
	C143.860992,172.414963 128.742126,183.738403 113.508476,195.147812 
	C105.871346,189.440170 98.289070,183.779938 90.713814,178.110336 
	C83.092873,172.406525 75.478920,166.693405 67.481499,160.699249 
	C65.257042,186.453003 81.290558,207.611282 106.440849,212.139679 
z"/>
<path fill="#FDFDFD" opacity="1.000000" stroke="none" 
	d="
M121.468658,226.000000 
	C125.332619,224.724457 129.759033,223.701385 133.982605,222.132278 
	C160.931366,212.120453 176.543228,185.620209 172.124619,157.244888 
	C171.498322,153.222870 172.194260,150.700195 175.791626,148.292709 
	C182.829285,143.582886 189.561752,138.386200 196.147797,133.054153 
	C197.786423,131.727524 199.307465,129.122055 199.321823,127.093361 
	C199.525787,98.274826 199.421677,69.454254 199.524994,40.634647 
	C199.534683,37.928509 198.884171,36.560871 196.235397,35.471588 
	C168.945129,24.248680 141.720810,12.865410 114.239059,1.263407 
	C151.296341,1.000000 188.592682,1.000000 225.944519,1.000000 
	C225.944519,75.888664 225.944519,150.777374 225.944519,226.000000 
	C191.313156,226.000000 156.625229,226.000000 121.468658,226.000000 
z"/>
<path fill="#FDFDFD" opacity="1.000000" stroke="none" 
	d="
M112.531342,1.000000 
	C90.101982,10.639771 67.198570,20.266750 44.309883,29.928623 
	C38.829887,32.241863 31.319788,33.277302 28.529638,37.438919 
	C25.734543,41.607922 27.568975,48.951393 27.557741,54.903809 
	C27.512787,78.723381 27.605814,102.543503 27.459799,126.362259 
	C27.440262,129.549316 28.358725,131.508911 30.951900,133.358627 
	C38.394684,138.667572 45.696808,144.183563 52.868248,149.853394 
	C54.069847,150.803391 55.179661,153.081024 54.922298,154.487213 
	C48.872536,187.542068 69.741745,218.838150 103.877327,225.638596 
	C69.700829,226.000000 35.401649,226.000000 1.051238,226.000000 
	C1.051238,151.108810 1.051238,76.217575 1.051238,1.000000 
	C38.020256,1.000000 75.041466,1.000000 112.531342,1.000000 
z"/>
<path fill="#FDFDFD" opacity="1.000000" stroke="none" 
	d="
M146.845123,29.149366 
	C157.273163,33.493412 167.333481,37.724178 178.162872,42.278374 
	C167.527908,48.487255 157.489487,54.350349 147.448593,60.209232 
	C136.995590,66.308594 126.577271,72.469627 116.037102,78.414558 
	C114.774895,79.126465 112.464996,79.314285 111.280762,78.632805 
	C90.591423,66.726814 70.002029,54.647141 48.801769,42.261059 
	C57.377350,38.694687 65.449799,35.341934 73.518768,31.980852 
	C85.747765,26.886934 97.936920,21.693291 110.241966,16.790377 
	C112.106232,16.047567 114.754623,16.004225 116.614212,16.729635 
	C126.642754,20.641699 136.536880,24.898321 146.845123,29.149366 
z"/>
<path fill="#FCFCFC" opacity="1.000000" stroke="none" 
	d="
M40.635666,56.494705 
	C40.674183,55.224026 40.712559,54.398533 40.784355,52.854187 
	C42.624496,53.929817 44.113132,54.802471 45.604099,55.671131 
	C64.955917,66.945778 84.295013,78.242386 103.678543,89.462242 
	C105.821342,90.702576 107.080673,91.851318 107.063393,94.736343 
	C106.907829,120.698830 106.972488,146.662643 106.972488,173.642593 
	C104.974045,172.235077 103.449020,171.218872 101.985100,170.121185 
	C82.709076,155.667450 63.482513,141.147079 44.122780,126.806473 
	C41.570904,124.916183 40.534908,123.055977 40.557903,119.853989 
	C40.708511,98.883522 40.635502,77.911446 40.635666,56.494705 
M63.188267,81.333458 
	C60.253117,79.659523 57.317970,77.985588 53.930138,76.053490 
	C53.930138,89.499146 53.831741,102.142372 54.054028,114.779961 
	C54.081974,116.368835 55.444893,118.385262 56.790447,119.427345 
	C66.116051,126.649773 75.596817,133.672043 85.037163,140.746017 
	C87.608604,142.672882 90.212189,144.556870 93.597870,147.046478 
	C93.597870,130.992599 93.676109,116.068848 93.461876,101.149292 
	C93.443016,99.835793 91.765854,98.124611 90.425575,97.319878 
	C81.609070,92.026283 72.673599,86.930817 63.188267,81.333458 
z"/>
<path fill="#FCFCFC" opacity="1.000000" stroke="none" 
	d="
M132.485199,164.501862 
	C128.396088,167.554916 124.582062,170.377594 120.028145,173.747849 
	C120.028145,168.980713 120.028168,165.063675 120.028145,161.146637 
	C120.028000,139.164902 119.983505,117.182907 120.116402,95.201973 
	C120.126457,93.539215 120.919426,91.079727 122.154213,90.345314 
	C142.696411,78.127449 163.366653,66.124870 184.013977,54.083935 
	C184.555984,53.767853 185.161530,53.560738 186.134781,53.124851 
	C186.223495,54.481861 186.354752,55.559086 186.355362,56.636379 
	C186.367523,77.785469 186.308960,98.934868 186.427856,120.083290 
	C186.444580,123.061028 185.513199,124.857155 183.089355,126.646172 
	C166.236862,139.084778 149.520370,151.707672 132.485199,164.501862 
M141.104446,94.645531 
	C134.621246,96.762306 132.577057,101.146378 133.265335,107.862808 
	C133.906586,114.120361 133.402313,120.495308 133.402313,126.818573 
	C133.402313,133.231995 133.402313,139.645416 133.402313,146.119476 
	C134.298279,146.026337 134.692993,146.106232 134.908234,145.945618 
	C147.026535,136.902695 159.173691,127.896751 171.163879,118.686523 
	C172.306305,117.808975 172.953552,115.652534 172.987198,114.071861 
	C173.164230,105.755539 173.070084,97.433449 173.070084,89.113358 
	C173.070084,84.931343 173.070084,80.749336 173.070084,75.978233 
	C162.041748,82.391487 151.873627,88.304497 141.104446,94.645531 
z"/>
<path fill="#FBFBFB" opacity="1.000000" stroke="none" 
	d="
M106.014236,212.078094 
	C81.290558,207.611282 65.257042,186.453003 67.481499,160.699249 
	C75.478920,166.693405 83.092873,172.406525 90.713814,178.110336 
	C98.289070,183.779938 105.871346,189.440170 113.508476,195.147812 
	C128.742126,183.738403 143.860992,172.414963 159.159592,160.956924 
	C164.553574,189.985168 135.816071,217.559326 106.014236,212.078094 
z"/>
<path fill="#070707" opacity="1.000000" stroke="none" 
	d="
M63.482597,81.552094 
	C72.673599,86.930817 81.609070,92.026283 90.425575,97.319878 
	C91.765854,98.124611 93.443016,99.835793 93.461876,101.149292 
	C93.676109,116.068848 93.597870,130.992599 93.597870,147.046478 
	C90.212189,144.556870 87.608604,142.672882 85.037163,140.746017 
	C75.596817,133.672043 66.116051,126.649773 56.790447,119.427345 
	C55.444893,118.385262 54.081974,116.368835 54.054028,114.779961 
	C53.831741,102.142372 53.930138,89.499146 53.930138,76.053490 
	C57.317970,77.985588 60.253117,79.659523 63.482597,81.552094 
M67.081352,108.908600 
	C71.152367,112.843834 75.223389,116.779068 80.041443,121.436417 
	C81.280693,106.212624 79.870659,104.015968 67.080727,99.566078 
	C67.080727,102.451874 67.080727,105.256340 67.081352,108.908600 
z"/>
<path fill="#070707" opacity="1.000000" stroke="none" 
	d="
M141.404968,94.431519 
	C151.873627,88.304497 162.041748,82.391487 173.070084,75.978233 
	C173.070084,80.749336 173.070084,84.931343 173.070084,89.113358 
	C173.070084,97.433449 173.164230,105.755539 172.987198,114.071861 
	C172.953552,115.652534 172.306305,117.808975 171.163879,118.686523 
	C159.173691,127.896751 147.026535,136.902695 134.908234,145.945618 
	C134.692993,146.106232 134.298279,146.026337 133.402313,146.119476 
	C133.402313,139.645416 133.402313,133.231995 133.402313,126.818573 
	C133.402313,120.495308 133.906586,114.120361 133.265335,107.862808 
	C132.577057,101.146378 134.621246,96.762306 141.404968,94.431519 
M159.919373,103.777328 
	C159.919373,102.365623 159.919373,100.953926 159.919373,99.331512 
	C146.429443,105.272911 145.104996,107.441917 147.135574,120.312515 
	C149.794220,118.350510 152.134338,116.274582 154.789459,114.745613 
	C158.816101,112.426819 160.912216,109.383797 159.919373,103.777328 
z"/>
<path fill="#F7F7F7" opacity="1.000000" stroke="none" 
	d="
M67.081039,108.484711 
	C67.080727,105.256340 67.080727,102.451874 67.080727,99.566078 
	C79.870659,104.015968 81.280693,106.212624 80.041443,121.436417 
	C75.223389,116.779068 71.152367,112.843834 67.081039,108.484711 
z"/>
<path fill="#F7F7F7" opacity="1.000000" stroke="none" 
	d="
M159.919373,104.208664 
	C160.912216,109.383797 158.816101,112.426819 154.789459,114.745613 
	C152.134338,116.274582 149.794220,118.350510 147.135574,120.312515 
	C145.104996,107.441917 146.429443,105.272911 159.919373,99.331512 
	C159.919373,100.953926 159.919373,102.365623 159.919373,104.208664 
z"/>
</svg>