<?xml version="1.0" standalone="no"?>
<!DOCTYPE svg PUBLIC "-//W3C//DTD SVG 20010904//EN"
 "http://www.w3.org/TR/2001/REC-SVG-20010904/DTD/svg10.dtd">
<svg version="1.0" xmlns="http://www.w3.org/2000/svg"
 width="225.000000pt" height="225.000000pt" viewBox="0 0 225.000000 225.000000"
 preserveAspectRatio="xMidYMid meet">

<g transform="translate(0.000000,225.000000) scale(0.100000,-0.100000)"
fill="#000000" stroke="none">
<path d="M699 2072 c-233 -98 -425 -180 -427 -184 -1 -5 -2 -217 -2 -473 l0
-464 139 -105 139 -105 -9 -43 c-30 -155 20 -345 124 -473 112 -137 291 -225
462 -225 171 0 350 88 462 225 104 128 154 318 124 473 l-9 43 139 105 139
105 0 464 c0 256 0 468 1 471 0 5 -603 261 -812 344 l-45 18 -425 -176z m829
-133 c117 -48 219 -92 227 -96 9 -6 -87 -67 -302 -192 -174 -101 -321 -184
-328 -184 -14 0 -645 366 -640 371 2 2 147 63 322 136 l318 133 95 -40 c52
-21 191 -79 308 -128z m-775 -414 l307 -179 0 -408 c0 -224 -3 -408 -6 -408
-3 0 -152 109 -330 242 l-324 242 0 359 0 359 23 -14 c12 -8 160 -95 330 -193z
m1097 -153 l0 -358 -324 -242 c-178 -133 -327 -242 -330 -242 -3 0 -6 184 -6
408 l0 408 328 191 c180 106 328 192 330 193 1 0 2 -161 2 -358z m-958 -889
c122 -91 227 -166 233 -166 6 0 111 75 233 166 122 92 224 167 227 167 3 0 5
-20 5 -44 0 -287 -259 -514 -534 -468 -229 39 -396 236 -396 468 0 24 2 44 5
44 3 0 105 -75 227 -167z"/>
<path d="M530 1293 l0 -208 186 -140 c103 -77 193 -144 200 -148 12 -7 14 32
14 231 l0 239 -177 103 c-98 57 -188 110 -200 118 l-23 14 0 -209z m253 -93
c4 -4 7 -37 5 -74 l-3 -67 -62 46 -63 47 0 60 0 59 58 -32 c31 -17 61 -35 65
-39z"/>
<path d="M1518 1383 l-198 -116 0 -239 c0 -199 2 -238 14 -231 7 4 97 71 200
148 l186 140 0 207 c0 115 -1 208 -2 207 -2 0 -92 -52 -200 -116z m72 -172 l0
-59 -52 -39 c-83 -62 -78 -63 -78 15 l0 70 63 36 c34 19 63 35 65 36 1 0 2
-26 2 -59z"/>
</g>
</svg>
