<?xml version="1.0" standalone="no"?>
<!DOCTYPE svg PUBLIC "-//W3C//DTD SVG 20010904//EN"
 "http://www.w3.org/TR/2001/REC-SVG-20010904/DTD/svg10.dtd">
<svg version="1.0" xmlns="http://www.w3.org/2000/svg"
 width="225.000000pt" height="225.000000pt" viewBox="0 0 225.000000 225.000000"
 preserveAspectRatio="xMidYMid meet">

<g transform="translate(0.000000,225.000000) scale(0.100000,-0.100000)"
fill="#000000" stroke="none">
<path d="M0 1125 l0 -1125 1125 0 1125 0 0 1125 0 1125 -1125 0 -1125 0 0
-1125z m1473 771 c15 -7 -3 -18 -85 -50 -329 -133 -600 -392 -754 -722 -50
-107 -115 -293 -134 -388 -15 -72 -12 -74 -112 99 -96 167 -113 212 -113 300
1 87 12 111 179 401 149 259 202 319 308 353 59 19 85 20 378 18 173 -1 323
-6 333 -11z m101 -47 c61 -41 73 -58 205 -284 175 -297 195 -343 196 -428 0
-73 -26 -167 -52 -189 -26 -22 -219 111 -326 225 l-58 62 39 -80 c50 -99 123
-204 203 -289 l60 -65 -41 -71 -42 -72 -28 27 c-40 38 -134 170 -185 260 -51
90 -111 265 -121 355 -12 108 -26 36 -27 -135 -1 -237 43 -426 148 -637 l53
-106 -57 -30 c-31 -16 -70 -33 -87 -36 l-32 -7 -35 108 c-152 462 -157 833
-16 1118 l30 60 -36 -40 c-144 -163 -257 -400 -306 -644 -27 -135 -29 -393 -5
-516 9 -44 16 -81 16 -82 0 -2 -59 -3 -131 -3 l-131 0 6 27 c2 16 8 60 11 98
12 120 54 344 92 485 89 334 214 571 398 756 77 77 185 164 206 164 3 0 27
-14 53 -31z"/>
</g>
</svg>
