<svg version="1.1" id="Layer_1" xmlns="http://www.w3.org/2000/svg" xmlns:xlink="http://www.w3.org/1999/xlink" x="0px" y="0px"
	 width="100%" viewBox="0 0 234 215" enable-background="new 0 0 234 215" xml:space="preserve">
<path fill="#5147E4" opacity="1.000000" stroke="none" 
	d="
M235.000000,101.000000 
	C235.000000,106.022095 235.000000,111.044182 234.670151,116.698845 
	C232.179199,123.114037 230.018097,128.896667 227.737076,135.000168 
	C206.408768,124.473808 189.162430,110.904602 174.906387,93.411087 
	C184.145569,116.574341 198.549072,136.070175 216.278625,153.653748 
	C212.522797,160.139572 208.803314,166.562637 204.804367,173.468292 
	C179.374527,144.834625 161.333862,113.356819 157.782593,74.829590 
	C153.986267,92.864510 153.951096,110.793121 156.139816,128.717957 
	C159.468201,155.976181 168.597916,181.304962 182.773010,205.112427 
	C175.814941,210.819611 168.276794,214.124832 159.620743,215.213470 
	C159.081970,214.059982 158.601181,213.206268 158.270813,212.297852 
	C148.057953,184.215027 140.312866,155.590286 138.531998,125.565033 
	C136.887695,97.842346 140.488480,71.128952 152.774796,45.928066 
	C153.311493,44.827209 153.623474,43.616810 154.040131,42.457432 
	C152.041229,42.990395 150.923706,44.092010 149.904205,45.277870 
	C132.489273,65.534248 120.570541,88.743759 113.035797,114.269081 
	C103.107681,147.902359 103.069656,181.852570 110.000000,216.000000 
	C99.312439,216.000000 88.624878,216.000000 77.289581,215.617706 
	C76.510742,212.495575 75.991821,209.708969 76.315536,207.023972 
	C77.729668,195.294708 79.077805,183.543259 81.016373,171.894135 
	C86.887344,136.614578 96.242050,102.374947 113.016281,70.544762 
	C126.422836,45.104935 143.932556,23.215216 168.525894,7.544057 
	C171.512115,5.641201 173.982498,5.196556 176.549255,7.497401 
	C181.835205,12.235719 188.558044,16.228470 191.917068,22.111149 
	C206.770798,48.124771 224.756897,72.470749 235.000000,101.000000 
z"/>
<path fill="#FEFEFF" opacity="1.000000" stroke="none" 
	d="
M235.000000,100.531342 
	C224.756897,72.470749 206.770798,48.124771 191.917068,22.111149 
	C188.558044,16.228470 181.835205,12.235719 176.549255,7.497401 
	C173.982498,5.196556 171.512115,5.641201 168.525894,7.544057 
	C143.932556,23.215216 126.422836,45.104935 113.016281,70.544762 
	C96.242050,102.374947 86.887344,136.614578 81.016373,171.894135 
	C79.077805,183.543259 77.729668,195.294708 76.315536,207.023972 
	C75.991821,209.708969 76.510742,212.495575 76.820923,215.617706 
	C51.730152,216.000000 26.460302,216.000000 1.000000,216.000000 
	C1.000000,183.312683 1.000000,150.625000 1.329866,117.634529 
	C7.095479,136.463287 19.824699,151.645416 29.198231,168.979294 
	C47.441105,90.404808 88.702087,31.579910 167.369858,3.719088 
	C164.506226,2.662559 162.253113,1.831280 160.000000,1.000000 
	C184.937347,1.000000 209.874695,1.000000 235.000000,1.000000 
	C235.000000,34.020657 235.000000,67.041672 235.000000,100.531342 
z"/>
<path fill="#FEFDFF" opacity="1.000000" stroke="none" 
	d="
M110.468658,216.000000 
	C103.069656,181.852570 103.107681,147.902359 113.035797,114.269081 
	C120.570541,88.743759 132.489273,65.534248 149.904205,45.277870 
	C150.923706,44.092010 152.041229,42.990395 154.040131,42.457432 
	C153.623474,43.616810 153.311493,44.827209 152.774796,45.928066 
	C140.488480,71.128952 136.887695,97.842346 138.531998,125.565033 
	C140.312866,155.590286 148.057953,184.215027 158.270813,212.297852 
	C158.601181,213.206268 159.081970,214.059982 159.620743,215.213470 
	C168.276794,214.124832 175.814941,210.819611 182.773010,205.112427 
	C168.597916,181.304962 159.468201,155.976181 156.139816,128.717957 
	C153.951096,110.793121 153.986267,92.864510 157.782593,74.829590 
	C161.333862,113.356819 179.374527,144.834625 204.804367,173.468292 
	C208.803314,166.562637 212.522797,160.139572 216.278625,153.653748 
	C198.549072,136.070175 184.145569,116.574341 174.906387,93.411087 
	C189.162430,110.904602 206.408768,124.473808 227.737076,135.000168 
	C230.018097,128.896667 232.179199,123.114037 234.670151,117.165710 
	C235.000000,149.935425 235.000000,182.870865 235.000000,216.000000 
	C193.645981,216.000000 152.291641,216.000000 110.468658,216.000000 
z"/>
<path fill="#5047E4" opacity="1.000000" stroke="none" 
	d="
M159.531342,1.000000 
	C162.253113,1.831280 164.506226,2.662559 167.369858,3.719088 
	C88.702087,31.579910 47.441105,90.404808 29.198231,168.979294 
	C19.824699,151.645416 7.095479,136.463287 1.329866,117.165871 
	C1.000000,111.645073 1.000000,106.290138 1.327452,100.291405 
	C4.516562,92.955681 6.842176,85.967377 10.345952,79.630493 
	C18.951599,64.066444 28.588675,49.060780 36.894718,33.346268 
	C45.504555,17.057005 57.050720,5.063488 75.772202,1.430125 
	C75.872192,1.410719 75.925102,1.148713 76.000000,0.999999 
	C103.687561,1.000000 131.375122,1.000000 159.531342,1.000000 
z"/>
<path fill="#FEFEFF" opacity="1.000000" stroke="none" 
	d="
M75.531342,0.999999 
	C75.925102,1.148713 75.872192,1.410719 75.772202,1.430125 
	C57.050720,5.063488 45.504555,17.057005 36.894718,33.346268 
	C28.588675,49.060780 18.951599,64.066444 10.345952,79.630493 
	C6.842176,85.967377 4.516562,92.955681 1.327452,99.823799 
	C1.000000,67.083176 1.000000,34.166344 1.000000,1.000000 
	C25.687000,1.000000 50.374844,1.000000 75.531342,0.999999 
z"/>
</svg>