<svg version="1.1" id="Layer_1" xmlns="http://www.w3.org/2000/svg" xmlns:xlink="http://www.w3.org/1999/xlink" x="0px" y="0px"
	 width="100%" viewBox="0 0 225 225" enable-background="new 0 0 225 225" xml:space="preserve">
<path fill="#2BC1E4" opacity="1.000000" stroke="none" 
	d="
M94.000000,226.000000 
	C63.019691,226.000000 32.039387,226.000000 1.029540,226.000000 
	C1.029540,151.067352 1.029540,76.134682 1.029540,1.101007 
	C75.884895,1.101007 150.769974,1.101007 226.000000,1.101007 
	C226.000000,49.353680 226.000000,97.708183 225.645325,146.489319 
	C223.472321,145.393051 221.354248,144.111420 219.895599,142.299042 
	C216.425507,137.987442 213.267334,133.424820 209.856247,128.789200 
	C209.544754,128.392532 209.337570,128.193817 209.072327,127.696617 
	C209.002701,126.944077 208.968552,126.513550 208.952988,125.653488 
	C209.445190,120.690483 208.238022,117.379662 203.044693,116.702919 
	C203.064087,115.277367 203.032181,114.154724 203.000107,112.572403 
	C202.993729,109.969276 202.965652,107.825600 202.986923,105.682411 
	C203.013199,103.035416 202.175812,101.074951 199.140442,101.069138 
	C196.451584,101.063988 193.169632,100.181633 192.616257,104.631302 
	C191.482513,104.936600 190.669739,105.192825 189.675232,105.632797 
	C189.305191,106.325401 189.116882,106.834244 188.620667,107.155701 
	C186.521652,106.235741 184.730560,105.503174 182.821045,104.494293 
	C181.808029,103.808411 180.913422,103.398827 179.989349,102.612122 
	C178.076645,100.153900 176.193375,98.072792 174.066422,95.722389 
	C180.207321,94.582787 174.089081,90.694901 175.799026,87.748932 
	C174.144379,88.725166 173.061844,89.363853 171.662506,89.862228 
	C169.897095,88.820114 168.448471,87.918312 166.907822,86.662735 
	C166.447678,85.770493 166.117722,84.795036 165.705750,84.759071 
	C159.520432,84.219101 153.327347,83.727455 147.125870,83.478302 
	C146.528580,83.454308 145.380051,85.109138 145.364883,85.999573 
	C145.349487,86.903122 146.225143,88.125175 147.061005,88.673615 
	C148.569000,89.663048 150.338196,90.254387 151.968445,91.354469 
	C151.277664,93.119987 150.616730,94.543037 149.656158,95.995209 
	C148.960968,96.080582 148.565430,96.136810 147.784485,96.187332 
	C142.503525,97.120491 137.607941,98.059357 132.148102,99.106422 
	C130.925110,97.319313 129.470169,95.193275 128.405029,93.636833 
	C126.345039,93.310432 124.719582,93.052879 123.094124,92.795334 
	C123.381653,91.227135 123.669182,89.658936 124.082466,87.404869 
	C122.207520,87.535698 120.488991,87.655617 118.636185,87.784904 
	C120.097115,93.505249 120.077179,93.533379 115.476631,92.940887 
	C114.514870,91.653961 113.438904,90.698753 112.183708,90.277344 
	C110.849899,89.829536 109.309647,90.035118 107.924896,89.691780 
	C105.665146,89.131477 93.936485,94.453911 93.358536,96.653961 
	C93.104980,97.619171 93.748589,98.820076 94.035583,100.366302 
	C94.050217,103.229385 94.014091,105.640121 93.661514,108.003937 
	C92.586754,107.581749 91.828438,107.206482 91.051956,106.413094 
	C90.726738,102.307076 90.419693,98.619171 90.088882,94.645821 
	C88.818077,95.049286 87.622246,95.747887 86.459007,95.697281 
	C85.529572,95.656845 84.538879,94.804573 83.815201,94.074814 
	C83.665405,93.923767 84.573502,92.723618 85.057449,92.219490 
	C85.440033,92.653519 85.759201,92.875046 86.078384,93.096565 
	C86.106171,92.961220 86.196800,92.736168 86.151833,92.704674 
	C85.784531,92.447350 85.391914,92.226151 84.950829,91.622780 
	C82.931358,90.502075 80.968048,89.752556 78.932686,88.656662 
	C76.573685,86.540398 74.286743,84.770500 71.634377,82.911819 
	C64.986610,79.911560 62.567978,80.259483 59.867390,84.996735 
	C63.129253,84.996735 66.066765,84.996735 69.003716,85.397308 
	C69.000412,86.866241 68.997673,87.934601 68.663437,89.012260 
	C67.543877,89.276054 66.755814,89.530556 65.465591,89.947227 
	C67.641312,90.894775 69.167122,91.559280 71.644524,92.638206 
	C67.478851,93.262810 64.682579,93.682076 61.555515,94.018929 
	C57.467869,90.277672 53.711014,86.618828 49.936535,82.591965 
	C48.716030,79.702843 48.096130,76.481743 46.146122,74.857758 
	C44.200481,73.237404 40.647175,72.182228 38.309734,72.803131 
	C36.208870,73.361198 33.487576,76.435715 33.334721,78.564926 
	C32.876999,84.940964 33.592793,91.396400 33.760242,97.823196 
	C34.079670,110.082642 34.637085,122.347527 34.482231,134.602386 
	C34.413357,140.053162 35.168789,141.973190 40.937347,143.222565 
	C41.668613,144.052734 42.265087,144.597397 42.952660,145.484192 
	C47.213364,152.564285 51.264595,159.379745 55.603035,166.007217 
	C57.738678,169.269669 60.405746,172.184235 62.894115,175.514191 
	C63.258266,176.199448 63.560635,176.626740 63.922729,177.410217 
	C68.922417,185.828293 73.840889,193.903610 78.845383,201.925262 
	C79.222778,202.530197 80.212677,202.753021 80.931679,203.522064 
	C81.808846,205.585266 82.573204,207.339584 83.553406,208.963638 
	C86.995499,214.666626 90.511841,220.324814 94.000000,226.000000 
z"/>
<path fill="#2C98AF" opacity="1.000000" stroke="none" 
	d="
M94.468658,226.000000 
	C90.511841,220.324814 86.995499,214.666626 83.553406,208.963638 
	C82.573204,207.339584 81.808846,205.585266 80.934402,203.134613 
	C78.742767,197.849594 77.061348,192.976944 74.244461,188.886169 
	C71.294655,184.602402 69.839645,178.752716 63.862999,177.054031 
	C63.560635,176.626740 63.258266,176.199448 62.993019,175.151978 
	C63.459457,172.965759 63.888775,171.399719 64.023659,170.907684 
	C60.654007,167.089325 57.817532,163.999634 55.130356,160.785141 
	C53.421104,158.740479 51.749077,156.619720 50.396111,154.334320 
	C48.914093,151.830933 47.818390,149.098816 46.554337,146.466385 
	C48.348061,145.818420 50.175735,145.246887 51.914265,144.474655 
	C52.418289,144.250778 52.666832,143.451736 53.388474,142.859650 
	C55.494617,141.864380 57.244785,140.925827 59.066628,139.796173 
	C59.138302,139.605072 59.207558,139.202820 59.397896,139.049316 
	C59.786228,138.630905 59.924690,138.337845 60.222652,137.664429 
	C60.637863,129.203735 60.834045,121.095268 61.402145,112.957771 
	C62.826347,112.037781 64.470436,111.332329 64.818886,110.220734 
	C65.825859,107.008385 68.244034,106.395226 70.622391,107.315971 
	C71.820709,107.779892 72.231689,110.277527 73.391159,112.663002 
	C77.975250,113.977188 77.697632,113.994156 78.090706,120.424835 
	C78.489716,126.952652 79.357246,133.467133 80.386147,139.929092 
	C80.609436,141.331467 82.196678,143.279007 83.495560,143.599915 
	C86.918861,144.445740 90.528984,144.535446 94.400024,144.906906 
	C97.071259,144.190277 99.498962,143.696106 101.700493,142.701385 
	C102.657356,142.269058 103.149261,140.807678 103.881592,139.507950 
	C104.003418,138.804031 104.095985,138.405869 104.472931,137.752823 
	C105.165680,135.434692 105.870888,133.379395 105.926468,131.306671 
	C106.089851,125.213150 105.995369,119.112709 106.334892,112.878128 
	C110.248436,108.816063 114.408775,109.291565 118.561485,111.445915 
	C120.684799,112.547447 121.883553,112.709480 122.322906,110.215225 
	C123.053032,112.574669 123.881027,114.627464 123.946732,116.704369 
	C124.130745,122.522026 123.877823,128.353714 124.071793,134.170715 
	C124.126137,135.800339 125.130669,137.398254 125.839218,139.203766 
	C125.979103,139.396835 126.091301,139.860291 126.069244,140.196747 
	C126.094215,141.494476 126.141243,142.455750 126.205383,143.766815 
	C129.332153,142.389755 132.111221,141.165833 135.074036,139.676529 
	C134.937698,136.593277 134.617645,133.775406 134.230789,130.548996 
	C134.201309,128.763077 134.238647,127.385689 134.615723,126.056740 
	C135.731598,127.057785 136.454391,128.060532 137.293854,128.953613 
	C139.823425,131.644806 142.398346,134.293350 145.204330,137.197296 
	C150.631668,139.287323 155.810257,141.138611 161.141815,143.289597 
	C162.870682,144.730423 164.446564,145.871552 165.838135,147.216797 
	C165.096512,147.899963 164.539230,148.378967 163.598999,148.935059 
	C161.741257,152.676178 160.266449,156.340195 158.481033,159.882446 
	C155.152115,158.346146 153.755646,156.394348 154.733749,152.754791 
	C155.064224,151.525085 153.591064,148.599365 152.660858,148.469894 
	C149.899429,148.085541 146.997253,148.699982 144.155136,148.975952 
	C144.079483,148.983307 144.061630,149.586182 143.683105,149.976288 
	C143.128677,150.092926 142.907974,150.144592 142.305023,150.103760 
	C139.349380,149.762405 136.717896,149.056870 134.216644,149.375015 
	C130.731613,149.818268 128.018845,152.473007 128.686142,155.804321 
	C129.150284,158.121368 132.024124,160.086472 134.099014,161.889359 
	C134.999771,162.672028 136.806976,162.355026 137.826248,163.072189 
	C139.066177,163.944580 139.909363,165.380859 140.924179,166.573196 
	C139.566528,167.696777 138.226425,169.702377 136.846970,169.729813 
	C134.947662,169.767593 133.071198,168.121475 131.081741,167.566910 
	C129.966919,167.256149 128.613129,167.579010 127.443520,167.897461 
	C127.236595,167.953781 127.196976,170.022156 127.434204,170.101395 
	C130.710907,171.196060 134.066681,172.881165 137.367584,172.808517 
	C139.900391,172.752762 143.668564,170.984146 144.552490,168.958466 
	C145.584030,166.594513 144.076935,163.122772 143.902100,159.983032 
	C145.331970,160.645721 146.809128,161.239090 147.659515,162.323837 
	C148.711060,163.665146 149.242172,165.414444 149.841797,167.194321 
	C150.924316,169.657578 152.163177,171.914001 153.351654,174.491074 
	C153.136353,175.211243 152.971436,175.610733 152.453735,176.091400 
	C150.009811,176.447952 147.918686,176.723343 145.781662,177.004791 
	C143.134308,184.554260 143.342560,185.513245 148.114136,187.324982 
	C150.097595,188.601318 151.971909,189.550049 153.846222,190.498779 
	C153.873779,188.688568 153.901352,186.878342 154.217346,184.876465 
	C157.886993,181.730606 161.268219,178.776398 164.409683,176.031677 
	C163.789474,173.686356 163.143097,171.242020 162.496704,168.797668 
	C162.999329,168.653961 163.501953,168.510254 164.004578,168.366547 
	C164.450623,169.488434 164.617645,170.886810 165.399567,171.675842 
	C167.141296,173.433426 168.990662,175.767914 171.160461,176.259552 
	C174.522339,177.021301 178.188431,176.416794 181.725189,176.441483 
	C183.251999,176.452148 184.777954,176.587418 185.974503,176.649094 
	C186.105820,173.810699 185.457031,171.217407 186.442703,169.655731 
	C189.358719,165.035645 189.354980,164.454773 183.871460,162.742981 
	C183.119156,161.693039 182.523788,160.898438 182.085052,159.893127 
	C182.538681,158.212387 182.400269,155.812744 183.208496,155.434174 
	C186.608978,153.841461 185.009323,151.272873 185.381683,148.985046 
	C186.493439,148.955490 187.233780,148.933777 188.364258,148.953033 
	C190.494492,148.286407 192.234589,147.578812 194.282120,146.803802 
	C196.047348,145.463882 197.505142,144.191391 199.128250,143.267426 
	C202.858215,145.791428 206.209076,145.959290 209.464752,142.880341 
	C212.096802,140.391159 214.538284,140.325638 216.639465,144.120895 
	C211.136337,146.645996 213.595779,149.687790 216.426620,151.523926 
	C219.201782,153.323929 222.776306,153.891525 226.000000,155.000000 
	C226.000000,178.615555 226.000000,202.231125 226.000000,226.000000 
	C182.312546,226.000000 138.624939,226.000000 94.468658,226.000000 
z"/>
<path fill="#2F99B2" opacity="1.000000" stroke="none" 
	d="
M226.000000,154.555832 
	C222.776306,153.891525 219.201782,153.323929 216.426620,151.523926 
	C213.595779,149.687790 211.136337,146.645996 216.639465,144.120895 
	C214.538284,140.325638 212.096802,140.391159 209.464752,142.880341 
	C206.209076,145.959290 202.858215,145.791428 199.206406,142.945343 
	C199.738434,140.853790 200.357605,139.432831 201.282532,137.920410 
	C202.783218,137.508102 204.191345,136.612839 205.136963,136.963791 
	C209.748383,138.675278 209.766022,136.006927 209.442963,132.816071 
	C209.312073,131.523346 209.180206,130.230728 209.282166,128.951721 
	C209.515564,128.965393 209.983139,128.963608 209.983139,128.963608 
	C213.267334,133.424820 216.425507,137.987442 219.895599,142.299042 
	C221.354248,144.111420 223.472321,145.393051 225.645325,146.957977 
	C226.000000,149.370560 226.000000,151.741104 226.000000,154.555832 
z"/>
<path fill="#2C9AAF" opacity="1.000000" stroke="none" 
	d="
M49.954159,82.959991 
	C53.711014,86.618828 57.467869,90.277672 61.560482,94.352386 
	C61.636230,95.853073 61.376225,96.937881 60.727962,97.934158 
	C57.218262,95.373734 54.923794,95.172241 51.327103,97.455437 
	C51.281521,99.188301 51.319508,100.527252 51.249233,102.271225 
	C51.055096,103.788025 50.969219,104.899788 50.683891,106.370926 
	C50.325439,115.500740 50.166439,124.271187 50.006042,133.369385 
	C49.996571,134.134079 49.988495,134.570999 49.601799,134.993500 
	C44.833427,135.053772 46.737236,130.878754 45.131004,128.561646 
	C45.107273,123.055962 45.155460,118.013985 45.388966,112.609467 
	C45.433590,107.186615 45.292900,102.126305 44.868507,96.783890 
	C42.726990,96.266426 40.869175,96.031075 38.933144,95.455322 
	C38.927170,92.224091 38.999405,89.333267 39.476940,86.457558 
	C43.458012,86.898224 45.549843,85.006729 47.224174,82.040619 
	C48.343925,82.392784 49.149040,82.676392 49.954159,82.959991 
z"/>
<path fill="#359CAE" opacity="1.000000" stroke="none" 
	d="
M94.064713,144.926239 
	C90.528984,144.535446 86.918861,144.445740 83.495560,143.599915 
	C82.196678,143.279007 80.609436,141.331467 80.386147,139.929092 
	C79.357246,133.467133 78.489716,126.952652 78.090706,120.424835 
	C77.697632,113.994156 77.975250,113.977188 73.391159,112.663002 
	C72.231689,110.277527 71.820709,107.779892 70.622391,107.315971 
	C68.244034,106.395226 65.825859,107.008385 64.818886,110.220734 
	C64.470436,111.332329 62.826347,112.037781 61.423210,112.586624 
	C61.357040,110.785522 61.641724,109.326546 62.028748,107.609726 
	C62.454018,106.913368 62.776943,106.474846 63.315479,105.998848 
	C63.531090,105.961365 63.949192,105.831879 64.314812,105.770882 
	C68.121269,104.802750 71.562103,103.895622 75.002411,102.995415 
	C75.001869,103.002342 75.014214,102.991470 75.195892,103.275803 
	C77.200836,105.148460 79.024086,106.736786 80.860886,108.511536 
	C80.874428,108.697952 81.075226,109.013260 81.055542,109.391617 
	C81.285995,111.242683 81.536125,112.715408 81.704872,114.638481 
	C81.691307,120.978973 81.759109,126.869110 81.713646,132.923737 
	C81.580818,133.219040 81.521614,133.359283 81.549973,133.478729 
	C81.609070,133.727661 81.714470,133.965591 81.713097,134.594391 
	C81.704620,136.027390 81.783890,137.074036 81.909531,138.514923 
	C87.841301,140.885529 89.975121,140.264511 89.966560,136.333069 
	C89.945290,126.561417 89.728851,116.790176 89.960457,106.970589 
	C90.576790,106.892006 90.823456,106.861610 91.070129,106.831207 
	C91.828438,107.206482 92.586754,107.581749 93.832245,108.240417 
	C94.685349,108.632042 95.051270,108.740250 95.380440,109.129738 
	C95.280197,109.589043 95.216721,109.767082 94.898041,110.279915 
	C94.728477,119.732933 94.814117,128.851151 94.989487,138.202759 
	C95.126221,138.764847 95.173241,139.093536 95.162903,139.830063 
	C94.758598,141.800674 94.411652,143.363464 94.064713,144.926239 
z"/>
<path fill="#3BBCCE" opacity="1.000000" stroke="none" 
	d="
M93.984818,99.913956 
	C93.748589,98.820076 93.104980,97.619171 93.358536,96.653961 
	C93.936485,94.453911 105.665146,89.131477 107.924896,89.691780 
	C109.309647,90.035118 110.849899,89.829536 112.183708,90.277344 
	C113.438904,90.698753 114.514870,91.653961 115.476631,92.940887 
	C120.077179,93.533379 120.097115,93.505249 118.636185,87.784904 
	C120.488991,87.655617 122.207520,87.535698 124.082466,87.404869 
	C123.669182,89.658936 123.381653,91.227135 123.094124,92.795334 
	C124.719582,93.052879 126.345039,93.310432 128.405029,93.636833 
	C129.470169,95.193275 130.925110,97.319313 132.148102,99.106422 
	C137.607941,98.059357 142.503525,97.120491 147.875122,96.404068 
	C148.560318,97.062233 148.769516,97.497955 148.974625,97.962502 
	C148.970535,97.991318 148.921600,97.959862 148.600082,97.988464 
	C147.517227,98.648300 146.755890,99.279549 145.815857,100.144379 
	C144.625885,101.280876 143.614578,102.183792 142.312668,103.268600 
	C141.715607,104.039413 141.409164,104.628342 141.071075,105.413582 
	C140.951553,105.876961 140.782013,106.073555 140.147751,106.153412 
	C138.539993,105.832443 137.315247,105.557747 135.887421,105.073273 
	C134.762299,104.545334 133.840286,104.227165 132.617142,103.785118 
	C129.780716,100.640770 127.809677,96.877617 122.987518,96.337021 
	C120.579971,95.795547 118.313713,95.598251 115.729599,95.371498 
	C114.613564,95.582985 113.815384,95.823944 112.717270,96.040070 
	C111.545128,96.423416 110.672928,96.831589 109.459251,97.348763 
	C108.051201,98.568855 107.074364,99.799225 105.859459,100.713142 
	C105.525925,100.964050 104.480064,100.268044 103.860023,99.606384 
	C102.905296,98.103912 102.011993,96.327576 100.766548,96.031250 
	C97.589188,95.275291 94.832558,96.160294 93.984818,99.913956 
z"/>
<path fill="#41BED5" opacity="1.000000" stroke="none" 
	d="
M49.936535,82.591965 
	C49.149040,82.676392 48.343925,82.392784 47.211815,81.657822 
	C46.866440,77.829941 45.482159,75.178696 41.970703,74.909317 
	C40.148129,74.769501 37.817738,75.595444 36.416203,76.799362 
	C33.509659,79.296089 34.783745,83.368210 39.071640,86.442436 
	C38.999405,89.333267 38.927170,92.224091 38.632950,95.592422 
	C37.921532,96.942368 37.012154,97.811806 37.005894,98.687691 
	C36.917290,111.084503 36.910759,123.482529 37.012913,135.879196 
	C37.024170,137.245300 37.827721,138.604874 38.402184,140.203781 
	C39.298714,140.950607 40.056870,141.461151 40.813805,142.213043 
	C40.812580,142.454422 40.802551,142.937073 40.802551,142.937073 
	C35.168789,141.973190 34.413357,140.053162 34.482231,134.602386 
	C34.637085,122.347527 34.079670,110.082642 33.760242,97.823196 
	C33.592793,91.396400 32.876999,84.940964 33.334721,78.564926 
	C33.487576,76.435715 36.208870,73.361198 38.309734,72.803131 
	C40.647175,72.182228 44.200481,73.237404 46.146122,74.857758 
	C48.096130,76.481743 48.716030,79.702843 49.936535,82.591965 
z"/>
<path fill="#34BED4" opacity="1.000000" stroke="none" 
	d="
M91.051956,106.413094 
	C90.823456,106.861610 90.576790,106.892006 89.819092,106.978928 
	C89.308060,107.035454 89.023209,107.034531 89.037514,107.007660 
	C89.051819,106.980797 88.995697,106.957214 89.002815,106.581421 
	C87.091026,103.377716 85.172112,100.549797 83.257111,97.754738 
	C83.261009,97.787590 83.217262,97.738251 82.963440,97.469040 
	C77.433411,94.819794 72.128838,93.674126 66.525497,96.844955 
	C66.325630,96.857399 65.971840,97.045128 65.696960,97.043106 
	C65.029663,97.384850 64.637245,97.728615 63.972153,98.160622 
	C63.526775,98.330574 63.354069,98.412285 62.839188,98.403870 
	C62.036743,98.216721 61.576481,98.119705 61.116215,98.022690 
	C61.376225,96.937881 61.636230,95.853073 61.891273,94.434807 
	C64.682579,93.682076 67.478851,93.262810 71.644524,92.638206 
	C69.167122,91.559280 67.641312,90.894775 65.465591,89.947227 
	C66.755814,89.530556 67.543877,89.276054 69.118164,89.015015 
	C72.937843,89.006660 75.971291,89.004852 79.004738,89.003044 
	C80.968048,89.752556 82.931358,90.502075 84.947334,91.625793 
	C85.000000,92.000000 84.994034,92.006981 84.994034,92.006981 
	C84.573502,92.723618 83.665405,93.923767 83.815201,94.074814 
	C84.538879,94.804573 85.529572,95.656845 86.459007,95.697281 
	C87.622246,95.747887 88.818077,95.049286 90.088882,94.645821 
	C90.419693,98.619171 90.726738,102.307076 91.051956,106.413094 
M76.139076,91.389534 
	C75.655693,91.947861 75.172310,92.506187 74.688927,93.064514 
	C75.941856,93.329414 77.194794,93.594322 78.447723,93.859230 
	C78.509193,93.544029 78.570663,93.228828 78.632141,92.913628 
	C77.993393,92.467621 77.354645,92.021622 76.139076,91.389534 
M80.131020,91.515762 
	C80.131020,91.515762 79.896721,91.435699 79.896721,91.435699 
	C79.896721,91.435699 80.044937,91.614883 80.131020,91.515762 
z"/>
<path fill="#25C1D6" opacity="1.000000" stroke="none" 
	d="
M149.955795,95.966080 
	C150.616730,94.543037 151.277664,93.119987 152.248611,91.292610 
	C153.042374,90.595184 153.526108,90.302101 154.417480,90.092545 
	C160.543182,90.118240 166.261246,90.060387 171.979309,90.002541 
	C173.061844,89.363853 174.144379,88.725166 175.799026,87.748932 
	C174.089081,90.694901 180.207321,94.582787 174.066422,95.722389 
	C176.193375,98.072792 178.076645,100.153900 179.909851,102.693008 
	C179.859802,103.151024 179.702087,103.314034 179.332672,103.366554 
	C176.534073,101.667793 174.172195,99.812737 171.662857,98.185066 
	C164.682861,93.657547 157.405609,94.518349 150.049011,96.892365 
	C150.004196,96.377121 149.979996,96.171600 149.955795,95.966080 
z"/>
<path fill="#259EB8" opacity="1.000000" stroke="none" 
	d="
M53.032494,142.916351 
	C52.666832,143.451736 52.418289,144.250778 51.914265,144.474655 
	C50.175735,145.246887 48.348061,145.818420 46.554337,146.466385 
	C47.818390,149.098816 48.914093,151.830933 50.396111,154.334320 
	C51.749077,156.619720 53.421104,158.740479 55.130356,160.785141 
	C57.817532,163.999634 60.654007,167.089325 64.023659,170.907684 
	C63.888775,171.399719 63.459457,172.965759 62.931236,174.894012 
	C60.405746,172.184235 57.738678,169.269669 55.603035,166.007217 
	C51.264595,159.379745 47.213364,152.564285 43.001308,145.432251 
	C42.958858,145.038208 43.052193,144.935791 43.366920,144.815857 
	C45.493538,142.763733 47.305435,140.831558 49.339516,139.121643 
	C50.718628,140.534714 51.875561,141.725540 53.032494,142.916351 
z"/>
<path fill="#2F99B2" opacity="1.000000" stroke="none" 
	d="
M182.939453,104.770607 
	C184.730560,105.503174 186.521652,106.235741 188.640778,107.564133 
	C189.507095,111.774628 187.050003,117.057632 193.790863,117.383202 
	C189.612457,120.310654 191.239075,124.393158 190.822083,128.201538 
	C190.136887,128.614014 189.646439,128.836243 188.866776,128.881134 
	C187.370972,127.776276 186.164383,126.848740 184.961716,125.507004 
	C186.571167,118.212532 184.679367,111.673210 182.996582,105.026596 
	C182.975525,104.941727 182.939453,104.770607 182.939453,104.770607 
z"/>
<path fill="#24C5DF" opacity="1.000000" stroke="none" 
	d="
M154.009857,90.009010 
	C153.526108,90.302101 153.042374,90.595184 152.278458,90.950134 
	C150.338196,90.254387 148.569000,89.663048 147.061005,88.673615 
	C146.225143,88.125175 145.349487,86.903122 145.364883,85.999573 
	C145.380051,85.109138 146.528580,83.454308 147.125870,83.478302 
	C153.327347,83.727455 159.520432,84.219101 165.705750,84.759071 
	C166.117722,84.795036 166.447678,85.770493 166.445221,86.660164 
	C163.272537,87.012474 160.417999,86.697205 157.690613,87.149223 
	C156.342743,87.372627 155.229340,89.010910 154.009857,90.009010 
z"/>
<path fill="#259EB8" opacity="1.000000" stroke="none" 
	d="
M63.922729,177.410217 
	C69.839645,178.752716 71.294655,184.602402 74.244461,188.886169 
	C77.061348,192.976944 78.742767,197.849594 80.920578,202.765991 
	C80.212677,202.753021 79.222778,202.530197 78.845383,201.925262 
	C73.840889,193.903610 68.922417,185.828293 63.922729,177.410217 
z"/>
<path fill="#2C98AF" opacity="1.000000" stroke="none" 
	d="
M209.048767,128.938065 
	C209.180206,130.230728 209.312073,131.523346 209.442963,132.816071 
	C209.766022,136.006927 209.748383,138.675278 205.136963,136.963791 
	C204.191345,136.612839 202.783218,137.508102 201.284958,137.502106 
	C200.984222,135.782761 200.986816,134.390228 201.329285,132.911560 
	C203.446182,130.222580 205.223190,127.619736 207.244781,125.145309 
	C207.971039,125.543495 208.452713,125.813255 208.934387,126.083023 
	C208.968552,126.513550 209.002701,126.944077 209.048645,127.925720 
	C209.060440,128.476837 209.048767,128.938065 209.048767,128.938065 
z"/>
<path fill="#35BCE5" opacity="1.000000" stroke="none" 
	d="
M154.417480,90.092545 
	C155.229340,89.010910 156.342743,87.372627 157.690613,87.149223 
	C160.417999,86.697205 163.272537,87.012474 166.537262,87.013931 
	C168.448471,87.918312 169.897095,88.820114 171.662506,89.862228 
	C166.261246,90.060387 160.543182,90.118240 154.417480,90.092545 
z"/>
<path fill="#21C6DF" opacity="1.000000" stroke="none" 
	d="
M192.937241,104.582230 
	C193.169632,100.181633 196.451584,101.063988 199.140442,101.069138 
	C202.175812,101.074951 203.013199,103.035416 202.986923,105.682411 
	C202.965652,107.825600 202.993729,109.969276 202.633301,112.566360 
	C201.532974,112.998932 200.799316,112.977890 200.049881,112.957718 
	C200.034119,112.958595 200.037781,112.934883 200.041626,112.541962 
	C199.264603,109.860306 203.088547,106.721443 198.386185,105.031754 
	C196.332367,104.842476 194.634811,104.712357 192.937241,104.582230 
z"/>
<path fill="#24C3EA" opacity="1.000000" stroke="none" 
	d="
M78.932686,88.656662 
	C75.971291,89.004852 72.937843,89.006660 69.449661,89.005722 
	C68.997673,87.934601 69.000412,86.866241 69.334869,85.369843 
	C70.444321,84.294746 71.222054,83.647675 71.999794,83.000610 
	C74.286743,84.770500 76.573685,86.540398 78.932686,88.656662 
z"/>
<path fill="#BAE8ED" opacity="1.000000" stroke="none" 
	d="
M94.035583,100.366302 
	C94.832558,96.160294 97.589188,95.275291 100.766548,96.031250 
	C102.011993,96.327576 102.905296,98.103912 103.652451,99.334114 
	C101.905533,98.741287 100.402542,97.393890 99.047638,97.529213 
	C98.202461,97.613632 97.313095,99.861649 96.918076,101.271652 
	C96.225609,103.743423 95.897781,106.317337 95.417198,108.848465 
	C95.051270,108.740250 94.685349,108.632042 94.148697,108.287346 
	C94.014091,105.640121 94.050217,103.229385 94.035583,100.366302 
z"/>
<path fill="#24C5DF" opacity="1.000000" stroke="none" 
	d="
M71.634377,82.911819 
	C71.222054,83.647675 70.444321,84.294746 69.335426,84.969269 
	C66.066765,84.996735 63.129253,84.996735 59.867390,84.996735 
	C62.567978,80.259483 64.986610,79.911560 71.634377,82.911819 
z"/>
<path fill="#B8EDF7" opacity="1.000000" stroke="none" 
	d="
M192.616257,104.631302 
	C194.634811,104.712357 196.332367,104.842476 198.432068,105.466797 
	C198.907166,108.290977 198.980133,110.620956 198.929047,113.228745 
	C198.523743,114.041656 198.242508,114.576759 197.617310,115.075668 
	C196.822601,114.950249 196.371902,114.861023 196.111572,114.518906 
	C196.436829,111.703560 196.571671,109.141106 196.706512,106.578644 
	C194.555023,107.078812 192.403519,107.578964 190.113739,107.765427 
	C189.935974,106.784164 189.896469,106.116600 189.856964,105.449036 
	C190.669739,105.192825 191.482513,104.936600 192.616257,104.631302 
z"/>
<path fill="#2FBBD3" opacity="1.000000" stroke="none" 
	d="
M208.952988,125.653488 
	C208.452713,125.813255 207.971039,125.543495 207.086121,124.876556 
	C205.824768,123.951347 204.966675,123.423325 204.095978,122.682892 
	C204.083389,122.470482 204.045883,122.043976 204.028656,121.719872 
	C203.670731,120.637245 203.330032,119.878716 202.961853,118.799118 
	C202.878723,118.053940 202.823059,117.629845 202.823914,117.155762 
	C202.880402,117.105782 202.993408,117.005821 202.993408,117.005821 
	C208.238022,117.379662 209.445190,120.690483 208.952988,125.653488 
z"/>
<path fill="#4594A1" opacity="1.000000" stroke="none" 
	d="
M189.675232,105.632797 
	C189.896469,106.116600 189.935974,106.784164 190.102234,108.157524 
	C190.297028,110.176430 190.365067,111.489548 190.363281,113.155220 
	C191.199493,113.937584 192.105530,114.367386 193.374954,114.844536 
	C194.465942,114.851860 195.193573,114.811829 195.921188,114.771797 
	C196.371902,114.861023 196.822601,114.950249 197.488617,115.387672 
	C196.456238,116.198242 195.208557,116.660606 193.960892,117.122978 
	C187.050003,117.057632 189.507095,111.774628 188.948685,107.751526 
	C189.116882,106.834244 189.305191,106.325401 189.675232,105.632797 
z"/>
<path fill="#2FBBD3" opacity="1.000000" stroke="none" 
	d="
M200.065643,112.956841 
	C200.799316,112.977890 201.532974,112.998932 202.633453,113.026031 
	C203.032181,114.154724 203.064087,115.277367 203.044693,116.702919 
	C202.993408,117.005821 202.880402,117.105782 202.545395,116.995728 
	C201.495468,115.576057 200.780563,114.266449 200.065643,112.956841 
z"/>
<path fill="#259EB8" opacity="1.000000" stroke="none" 
	d="
M40.937347,143.222565 
	C40.802551,142.937073 40.812580,142.454422 41.145321,142.314514 
	C42.002773,143.095016 42.527485,144.015396 43.052193,144.935791 
	C43.052193,144.935791 42.958858,145.038208 42.910210,145.090149 
	C42.265087,144.597397 41.668613,144.052734 40.937347,143.222565 
z"/>
<path fill="#25C1D6" opacity="1.000000" stroke="none" 
	d="
M179.939301,103.070137 
	C180.913422,103.398827 181.808029,103.808411 182.821045,104.494293 
	C182.939453,104.770607 182.975525,104.941727 182.641174,104.997665 
	C181.832306,105.068146 181.357773,105.082695 180.599716,104.986023 
	C180.111481,104.354538 179.906784,103.834282 179.702087,103.314034 
	C179.702087,103.314034 179.859802,103.151024 179.939301,103.070137 
z"/>
<path fill="#34BED4" opacity="1.000000" stroke="none" 
	d="
M85.003494,91.996986 
	C85.391914,92.226151 85.784531,92.447350 86.151833,92.704674 
	C86.196800,92.736168 86.106171,92.961220 86.078384,93.096565 
	C85.759201,92.875046 85.440033,92.653519 85.057449,92.219490 
	C84.994034,92.006981 85.000000,92.000000 85.003494,91.996986 
z"/>
<path fill="#47B9CB" opacity="1.000000" stroke="none" 
	d="
M149.656158,95.995209 
	C149.979996,96.171600 150.004196,96.377121 149.931488,97.095520 
	C149.596451,97.840935 149.311172,97.949364 148.978714,97.933685 
	C148.769516,97.497955 148.560318,97.062233 148.260498,96.409775 
	C148.565430,96.136810 148.960968,96.080582 149.656158,95.995209 
z"/>
<path fill="#2FBBD3" opacity="1.000000" stroke="none" 
	d="
M209.282166,128.951721 
	C209.048767,128.938065 209.060440,128.476837 209.084137,128.247742 
	C209.337570,128.193817 209.544754,128.392532 209.856247,128.789200 
	C209.983139,128.963608 209.515564,128.965393 209.282166,128.951721 
z"/>
<path fill="#2A97A7" opacity="1.000000" stroke="none" 
	d="
M184.028381,162.998322 
	C189.354980,164.454773 189.358719,165.035645 186.442703,169.655731 
	C185.457031,171.217407 186.105820,173.810699 185.974503,176.649094 
	C184.777954,176.587418 183.251999,176.452148 181.725189,176.441483 
	C178.188431,176.416794 174.522339,177.021301 171.160461,176.259552 
	C168.990662,175.767914 167.141296,173.433426 165.399567,171.675842 
	C164.617645,170.886810 164.450623,169.488434 164.004578,168.366547 
	C163.501953,168.510254 162.999329,168.653961 162.496704,168.797668 
	C163.143097,171.242020 163.789474,173.686356 164.409683,176.031677 
	C161.268219,178.776398 157.886993,181.730606 153.878891,184.934387 
	C151.503006,185.788452 149.754013,186.392899 148.005005,186.997360 
	C143.342560,185.513245 143.134308,184.554260 145.781662,177.004791 
	C147.918686,176.723343 150.009811,176.447952 152.448044,176.437820 
	C150.282837,178.806686 147.770538,180.910294 144.765533,183.426468 
	C150.471802,185.430771 153.422638,183.556763 155.294052,179.336365 
	C157.718079,173.869659 160.322662,168.473343 162.493454,162.907852 
	C163.712738,159.781906 164.214279,156.376007 165.435150,153.060150 
	C166.928101,161.052124 174.098160,162.385406 180.231094,164.897903 
	C178.834839,167.114624 177.898666,168.600891 176.625198,170.026550 
	C175.427032,170.020157 174.566147,170.074371 173.705276,170.128586 
	C173.693192,170.353378 173.681107,170.578186 173.669037,170.802979 
	C174.370529,170.888245 175.072037,170.973511 175.946533,171.355591 
	C178.768707,173.670258 180.637878,171.824371 182.533066,170.315781 
	C185.049942,168.312286 185.245010,165.788315 184.028381,162.998322 
M171.352203,169.045334 
	C171.090958,169.766632 170.829727,170.487915 170.568481,171.209213 
	C170.790222,171.274017 171.011963,171.338821 171.233688,171.403610 
	C171.420547,170.695206 171.607391,169.986801 171.352203,169.045334 
z"/>
<path fill="#E8FAFC" opacity="1.000000" stroke="none" 
	d="
M165.039185,153.096222 
	C164.214279,156.376007 163.712738,159.781906 162.493454,162.907852 
	C160.322662,168.473343 157.718079,173.869659 155.294052,179.336365 
	C153.422638,183.556763 150.471802,185.430771 144.765533,183.426468 
	C147.770538,180.910294 150.282837,178.806686 152.800827,176.356659 
	C152.971436,175.610733 153.136353,175.211243 153.542114,174.223267 
	C153.235611,172.068207 152.688248,170.501617 152.090363,168.636719 
	C151.712677,167.872894 151.385483,167.407394 151.042450,166.952423 
	C151.026611,166.962967 151.061172,166.929016 151.047546,166.548187 
	C148.996063,160.788651 146.958206,155.409943 145.321960,149.912247 
	C147.204315,150.893082 149.269547,151.681183 150.054062,153.152283 
	C152.235046,157.242035 153.883789,161.615616 156.074539,166.637589 
	C157.248322,163.771988 158.019974,161.888092 158.791656,160.004211 
	C160.266449,156.340195 161.741257,152.676178 163.896942,149.065247 
	C165.388657,149.746140 166.199509,150.373947 166.814453,151.213928 
	C166.092102,151.982788 165.565643,152.539505 165.039185,153.096222 
z"/>
<path fill="#D5F1F4" opacity="1.000000" stroke="none" 
	d="
M143.671326,160.131714 
	C144.076935,163.122772 145.584030,166.594513 144.552490,168.958466 
	C143.668564,170.984146 139.900391,172.752762 137.367584,172.808517 
	C134.066681,172.881165 130.710907,171.196060 127.434204,170.101395 
	C127.196976,170.022156 127.236595,167.953781 127.443520,167.897461 
	C128.613129,167.579010 129.966919,167.256149 131.081741,167.566910 
	C133.071198,168.121475 134.947662,169.767593 136.846970,169.729813 
	C138.226425,169.702377 139.566528,167.696777 140.924179,166.573196 
	C139.909363,165.380859 139.066177,163.944580 137.826248,163.072189 
	C136.806976,162.355026 134.999771,162.672028 134.099014,161.889359 
	C132.024124,160.086472 129.150284,158.121368 128.686142,155.804321 
	C128.018845,152.473007 130.731613,149.818268 134.216644,149.375015 
	C136.717896,149.056870 139.349380,149.762405 142.492981,150.404892 
	C143.099747,151.899826 143.136292,153.001114 143.172852,154.102417 
	C141.130173,154.084549 139.080261,153.954239 137.047134,154.084961 
	C135.470856,154.186310 133.915527,154.613846 132.350891,154.896393 
	C133.242706,156.070602 133.909729,157.881378 135.071335,158.291580 
	C137.812729,159.259674 140.789658,159.560822 143.671326,160.131714 
z"/>
<path fill="#DCF5F8" opacity="1.000000" stroke="none" 
	d="
M165.435135,153.060150 
	C165.565643,152.539505 166.092102,151.982788 167.204468,151.261017 
	C175.942657,147.486526 179.199860,147.948761 182.347214,153.930481 
	C179.405228,153.560043 176.979370,153.021957 174.560593,153.051987 
	C173.417648,153.066177 172.288193,154.168716 171.152634,154.778137 
	C171.872299,155.902618 172.358673,157.664032 173.356354,158.029465 
	C176.099030,159.034042 179.056137,159.453094 181.928406,160.103836 
	C182.523788,160.898438 183.119156,161.693039 183.871460,162.742981 
	C185.245010,165.788315 185.049942,168.312286 182.533066,170.315781 
	C180.637878,171.824371 178.768707,173.670258 176.167206,171.222198 
	C176.464081,170.557053 176.713287,170.322113 176.962494,170.087173 
	C177.898666,168.600891 178.834839,167.114624 180.231094,164.897903 
	C174.098160,162.385406 166.928101,161.052124 165.435135,153.060150 
z"/>
<path fill="#4194A0" opacity="1.000000" stroke="none" 
	d="
M125.699341,139.010712 
	C125.130669,137.398254 124.126137,135.800339 124.071793,134.170715 
	C123.877823,128.353714 124.130745,122.522026 123.946732,116.704369 
	C123.881027,114.627464 123.053032,112.574669 122.229340,109.877762 
	C120.202820,105.699905 117.324333,104.877998 113.641014,105.291382 
	C108.902298,105.823219 106.617004,108.531128 106.001846,113.014984 
	C105.995369,119.112709 106.089851,125.213150 105.926468,131.306671 
	C105.870888,133.379395 105.165680,135.434692 104.418991,137.286194 
	C104.069817,129.048233 104.058960,121.022011 104.160294,112.746544 
	C104.329918,112.138428 104.387367,111.779564 104.626335,111.169662 
	C104.908096,110.314598 105.008339,109.710571 105.334656,108.840866 
	C107.147408,104.105110 110.333435,102.268097 115.379829,102.920586 
	C117.823578,103.384491 119.875565,103.776726 122.014114,104.382111 
	C122.292931,104.855415 122.548073,105.015007 122.970062,105.377731 
	C124.013283,106.530518 124.952553,107.379616 125.915863,108.507385 
	C125.939491,109.157562 125.939087,109.529060 125.697861,110.009697 
	C125.572327,110.541153 125.687607,110.963478 125.793007,111.550484 
	C125.783127,111.715164 125.945168,112.002602 125.885124,112.467842 
	C125.783173,121.625626 125.741264,130.318176 125.699341,139.010712 
z"/>
<path fill="#4098A3" opacity="1.000000" stroke="none" 
	d="
M180.883255,105.097244 
	C181.357773,105.082695 181.832306,105.068146 182.662231,105.082527 
	C184.679367,111.673210 186.571167,118.212532 184.768204,125.801575 
	C184.364670,129.011246 184.158585,131.512177 183.657501,134.213440 
	C180.555038,135.722092 177.790405,137.134674 174.928757,138.311249 
	C171.660614,139.654938 168.306107,140.788605 164.633575,142.012375 
	C163.181625,142.337433 162.085236,142.663666 160.988846,142.989883 
	C155.810257,141.138611 150.631668,139.287323 145.365784,137.012756 
	C145.511353,136.358032 145.764435,136.151352 146.369934,136.093079 
	C154.447098,141.840714 162.580719,142.422012 171.403900,138.047882 
	C172.894150,137.165787 174.073044,136.332443 175.456543,135.399673 
	C175.911377,135.106628 176.074600,134.856308 176.468964,134.411957 
	C177.343796,133.560867 177.900482,132.847076 178.624207,132.008179 
	C178.949173,131.643524 179.029922,131.380310 179.264969,130.983780 
	C179.674591,130.598877 179.852707,130.323608 180.041443,130.041656 
	C180.052063,130.034988 180.065674,130.013901 180.359863,129.811401 
	C184.463379,122.466873 185.510391,115.260429 181.112961,107.573807 
	C181.005234,106.512100 180.944244,105.804672 180.883255,105.097244 
z"/>
<path fill="#E9F9F9" opacity="1.000000" stroke="none" 
	d="
M193.974686,146.871231 
	C192.234589,147.578812 190.494492,148.286407 188.373306,148.554840 
	C189.164352,142.167694 190.336472,136.219666 191.505615,130.272079 
	C193.889862,130.272507 196.277100,130.272507 198.518707,130.272507 
	C200.615417,137.070038 195.378235,141.418365 193.974686,146.871231 
z"/>
<path fill="#489CAC" opacity="1.000000" stroke="none" 
	d="
M146.037720,135.969406 
	C145.764435,136.151352 145.511353,136.358032 145.117035,136.773987 
	C142.398346,134.293350 139.823425,131.644806 137.293854,128.953613 
	C136.454391,128.060532 135.731598,127.057785 134.531738,125.595795 
	C133.898056,119.171616 133.688095,113.256798 133.446167,106.999084 
	C133.248886,105.740456 133.083572,104.824730 132.918243,103.909004 
	C133.840286,104.227165 134.762299,104.545334 135.880478,105.386475 
	C137.225861,106.638603 138.375092,107.367775 139.431732,108.489975 
	C138.852249,111.240677 138.365372,113.598351 137.746704,116.391098 
	C137.487167,122.778847 138.781143,128.237000 143.288239,132.904144 
	C144.320465,134.103394 145.179092,135.036407 146.037720,135.969406 
z"/>
<path fill="#3A999E" opacity="1.000000" stroke="none" 
	d="
M182.085052,159.893127 
	C179.056137,159.453094 176.099030,159.034042 173.356354,158.029465 
	C172.358673,157.664032 171.872299,155.902618 171.152634,154.778137 
	C172.288193,154.168716 173.417648,153.066177 174.560593,153.051987 
	C176.979370,153.021957 179.405228,153.560043 182.347214,153.930481 
	C179.199860,147.948761 175.942657,147.486526 167.400375,151.048859 
	C166.199509,150.373947 165.388657,149.746140 164.279877,148.988159 
	C164.539230,148.378967 165.096512,147.899963 166.248215,147.215515 
	C168.212570,147.030884 169.582520,147.051697 171.079193,147.162140 
	C171.205933,147.251785 171.654129,147.298233 171.654129,147.298233 
	C171.654129,147.298233 172.063629,147.090408 172.387619,147.066071 
	C173.495529,146.718704 174.279434,146.395691 175.384903,146.061295 
	C176.137131,146.042908 176.567825,146.035873 177.252411,146.223602 
	C178.327240,146.610901 179.148163,146.803436 180.313782,147.034119 
	C182.107666,147.711945 183.556854,148.351608 185.003372,148.995422 
	C185.000702,148.999573 185.010269,148.992859 185.010269,148.992859 
	C185.009323,151.272873 186.608978,153.841461 183.208496,155.434174 
	C182.400269,155.812744 182.538681,158.212387 182.085052,159.893127 
M174.024139,156.574112 
	C175.019363,156.787659 176.014587,157.001205 177.009811,157.214752 
	C176.326157,154.667801 175.557571,152.535416 174.024139,156.574112 
z"/>
<path fill="#479FAA" opacity="1.000000" stroke="none" 
	d="
M194.282120,146.803802 
	C195.378235,141.418365 200.615417,137.070038 198.518707,130.272507 
	C196.277100,130.272507 193.889862,130.272507 191.505615,130.272079 
	C190.336472,136.219666 189.164352,142.167694 187.983185,148.513885 
	C187.233780,148.933777 186.493439,148.955490 185.381683,148.985046 
	C185.010269,148.992859 185.000702,148.999573 184.973938,148.681793 
	C186.008942,144.299332 187.070694,140.234680 188.330231,135.824432 
	C188.737335,133.338715 188.946655,131.198608 189.155975,129.058472 
	C189.646439,128.836243 190.136887,128.614014 191.154022,128.202713 
	C192.123764,128.011276 192.566803,128.008896 193.355072,127.999550 
	C194.797287,127.686241 195.894257,127.379898 197.306168,127.076035 
	C198.039291,127.071915 198.457504,127.065315 198.998871,127.389389 
	C199.744492,129.479279 200.366943,131.238495 200.989395,132.997711 
	C200.986816,134.390228 200.984222,135.782761 200.979218,137.593582 
	C200.357605,139.432831 199.738434,140.853790 199.041092,142.596817 
	C197.505142,144.191391 196.047348,145.463882 194.282120,146.803802 
z"/>
<path fill="#4499AD" opacity="1.000000" stroke="none" 
	d="
M143.902100,159.983047 
	C140.789658,159.560822 137.812729,159.259674 135.071335,158.291580 
	C133.909729,157.881378 133.242706,156.070602 132.350891,154.896393 
	C133.915527,154.613846 135.470856,154.186310 137.047134,154.084961 
	C139.080261,153.954239 141.130173,154.084549 143.172852,154.102417 
	C143.136292,153.001114 143.099747,151.899826 142.875244,150.497406 
	C142.907974,150.144592 143.128677,150.092926 143.908936,150.005859 
	C144.468521,149.970459 144.920349,150.031219 144.920349,150.031219 
	C146.958206,155.409943 148.996063,160.788651 150.781952,166.564880 
	C150.352692,166.970764 150.175415,166.979126 149.998138,166.987473 
	C149.242172,165.414444 148.711060,163.665146 147.659515,162.323837 
	C146.809128,161.239090 145.331970,160.645721 143.902100,159.983047 
z"/>
<path fill="#D8FCFB" opacity="1.000000" stroke="none" 
	d="
M133.478149,107.341988 
	C133.688095,113.256798 133.898056,119.171616 134.191986,125.547363 
	C134.238647,127.385689 134.201309,128.763077 134.144684,130.992004 
	C134.000656,134.526428 133.875916,137.209305 133.326385,139.877518 
	C130.631485,139.861984 128.361389,139.861130 126.091301,139.860291 
	C126.091301,139.860291 125.979103,139.396835 125.839226,139.203766 
	C125.741264,130.318176 125.783173,121.625626 126.115829,112.811356 
	C126.598618,114.319603 126.929565,115.947243 126.956963,117.579987 
	C127.043198,122.718689 126.760689,127.881378 127.202972,132.984344 
	C127.320000,134.334671 129.533508,135.503281 130.784378,136.755325 
	C131.512741,135.478241 132.760864,134.243729 132.869583,132.915909 
	C133.166275,129.291855 132.924118,125.627182 133.002914,121.980919 
	C133.108398,117.100136 133.314972,112.221527 133.478149,107.341988 
z"/>
<path fill="#349BA3" opacity="1.000000" stroke="none" 
	d="
M145.321960,149.912247 
	C144.920349,150.031219 144.468521,149.970459 144.242676,149.940887 
	C144.061630,149.586182 144.079483,148.983307 144.155136,148.975952 
	C146.997253,148.699982 149.899429,148.085541 152.660858,148.469894 
	C153.591064,148.599365 155.064224,151.525085 154.733749,152.754791 
	C153.755646,156.394348 155.152115,158.346146 158.481018,159.882446 
	C158.019974,161.888092 157.248322,163.771988 156.074539,166.637589 
	C153.883789,161.615616 152.235046,157.242035 150.054062,153.152283 
	C149.269547,151.681183 147.204315,150.893082 145.321960,149.912247 
z"/>
<path fill="#239CB0" opacity="1.000000" stroke="none" 
	d="
M106.334892,112.878128 
	C106.617004,108.531128 108.902298,105.823219 113.641014,105.291382 
	C117.324333,104.877998 120.202820,105.699905 121.979256,109.582123 
	C121.883553,112.709480 120.684799,112.547447 118.561485,111.445915 
	C114.408775,109.291565 110.248436,108.816063 106.334892,112.878128 
z"/>
<path fill="#BAE8ED" opacity="1.000000" stroke="none" 
	d="
M104.048111,112.995796 
	C104.058960,121.022011 104.069817,129.048233 104.134613,137.541077 
	C104.095985,138.405869 104.003418,138.804031 103.450264,139.550598 
	C100.399879,139.740067 97.810066,139.581146 95.220261,139.422226 
	C95.173241,139.093536 95.126221,138.764847 95.061699,137.774796 
	C95.203064,135.393585 95.361938,133.673721 95.785507,132.149307 
	C96.256538,132.793381 96.390564,133.296951 96.682182,133.680801 
	C97.736420,135.068436 98.843643,136.415817 99.930855,137.778397 
	C100.936455,136.259445 102.239632,134.850220 102.853134,133.186676 
	C103.340767,131.864380 102.924088,130.227402 103.014900,128.736588 
	C103.334610,123.488152 103.700035,118.242500 104.048111,112.995796 
z"/>
<path fill="#4E9DAC" opacity="1.000000" stroke="none" 
	d="
M61.926407,107.867569 
	C61.641724,109.326546 61.357040,110.785522 61.051292,112.615646 
	C60.834045,121.095268 60.637863,129.203735 60.043106,137.589478 
	C59.644524,137.866730 59.277504,137.738556 59.266338,137.542908 
	C59.255173,137.347244 59.073376,136.999542 59.169979,136.672638 
	C59.216446,135.897919 59.166306,135.450119 59.215385,134.542709 
	C59.412064,127.741707 59.509525,121.400291 59.714783,114.723068 
	C59.820839,113.919167 59.819099,113.451065 59.904663,112.583878 
	C60.008923,110.829697 60.025875,109.474609 60.357029,108.076035 
	C61.089619,107.977554 61.508011,107.922562 61.926407,107.867569 
z"/>
<path fill="#2F99B2" opacity="1.000000" stroke="none" 
	d="
M170.952454,147.072510 
	C169.582520,147.051697 168.212570,147.030884 166.432556,147.011368 
	C164.446564,145.871552 162.870682,144.730423 161.141815,143.289597 
	C162.085236,142.663666 163.181625,142.337433 164.779785,142.337830 
	C168.542145,143.800522 171.802750,144.936584 175.063354,146.072662 
	C174.279434,146.395691 173.495529,146.718704 172.361664,147.036285 
	C172.011734,147.030823 171.955917,146.974930 171.853912,146.885605 
	C171.476608,146.683044 171.238251,146.743912 171.014786,147.001434 
	C170.992737,147.023987 170.952454,147.072525 170.952454,147.072510 
M167.529282,145.503693 
	C167.529282,145.503693 167.487885,145.518936 167.529282,145.503693 
z"/>
<path fill="#4E9DAC" opacity="1.000000" stroke="none" 
	d="
M53.388470,142.859650 
	C51.875561,141.725540 50.718628,140.534714 49.466110,138.816650 
	C49.573822,137.195572 49.777122,136.101746 49.980423,135.007935 
	C49.988495,134.570999 49.996571,134.134079 50.253822,133.360901 
	C50.502998,133.024658 50.998493,133.002808 51.099163,133.330811 
	C51.337406,134.785629 51.474979,135.912476 51.538773,137.354813 
	C51.505566,137.882477 51.546146,138.094635 51.664726,138.589401 
	C52.073776,139.052521 52.404819,139.233063 52.927261,139.483536 
	C53.118656,139.553482 53.526009,139.540665 53.897087,139.667221 
	C55.843761,139.858276 57.419353,139.922760 58.994949,139.987259 
	C57.244785,140.925827 55.494617,141.864380 53.388470,142.859650 
z"/>
<path fill="#4196A8" opacity="1.000000" stroke="none" 
	d="
M95.162903,139.830063 
	C97.810066,139.581146 100.399879,139.740067 103.421021,139.856339 
	C103.149261,140.807678 102.657356,142.269058 101.700493,142.701385 
	C99.498962,143.696106 97.071259,144.190277 94.400024,144.906906 
	C94.411652,143.363464 94.758598,141.800674 95.162903,139.830063 
z"/>
<path fill="#1A9DB9" opacity="1.000000" stroke="none" 
	d="
M148.114136,187.324982 
	C149.754013,186.392899 151.503006,185.788452 153.590454,185.126068 
	C153.901352,186.878342 153.873779,188.688568 153.846222,190.498779 
	C151.971909,189.550049 150.097595,188.601318 148.114136,187.324982 
z"/>
<path fill="#4194A0" opacity="1.000000" stroke="none" 
	d="
M126.069244,140.196747 
	C128.361389,139.861130 130.631485,139.861984 133.610977,139.894684 
	C134.510361,139.931656 134.700333,139.936783 134.890305,139.941910 
	C132.111221,141.165833 129.332153,142.389755 126.205383,143.766815 
	C126.141243,142.455750 126.094215,141.494476 126.069244,140.196747 
z"/>
<path fill="#2A97A7" opacity="1.000000" stroke="none" 
	d="
M149.841797,167.194321 
	C150.175415,166.979126 150.352692,166.970764 150.795563,166.945709 
	C151.061172,166.929016 151.026611,166.962967 151.091263,167.242126 
	C151.484238,167.992523 151.812561,168.463791 152.140884,168.935043 
	C152.688248,170.501617 153.235611,172.068207 153.592499,173.902588 
	C152.163177,171.914001 150.924316,169.657578 149.841797,167.194321 
z"/>
<path fill="#489CAC" opacity="1.000000" stroke="none" 
	d="
M135.074036,139.676529 
	C134.700333,139.936783 134.510361,139.931656 134.035797,139.909363 
	C133.875916,137.209305 134.000656,134.526428 134.211487,131.400543 
	C134.617645,133.775406 134.937698,136.593277 135.074036,139.676529 
z"/>
<path fill="#BAE4E8" opacity="1.000000" stroke="none" 
	d="
M59.066628,139.796173 
	C57.419353,139.922760 55.843761,139.858276 54.322800,139.519531 
	C55.829075,139.066635 57.280724,138.887970 58.850689,138.833130 
	C58.969009,138.956970 59.207558,139.202820 59.207558,139.202820 
	C59.207558,139.202820 59.138302,139.605072 59.066628,139.796173 
z"/>
<path fill="#BAE4E8" opacity="1.000000" stroke="none" 
	d="
M59.277504,137.738556 
	C59.277504,137.738556 59.644524,137.866730 59.824074,137.941696 
	C59.924690,138.337845 59.786228,138.630905 59.397896,139.049316 
	C59.207558,139.202820 58.969009,138.956970 58.973053,138.582870 
	C59.077232,138.052032 59.177368,137.895294 59.277504,137.738556 
z"/>
<path fill="#F1FDFA" opacity="1.000000" stroke="none" 
	d="
M38.263809,139.967484 
	C37.827721,138.604874 37.024170,137.245300 37.012913,135.879196 
	C36.910759,123.482529 36.917290,111.084503 37.005894,98.687691 
	C37.012154,97.811806 37.921532,96.942368 38.711159,95.932831 
	C40.869175,96.031075 42.726990,96.266426 44.799446,97.239868 
	C45.077271,102.975967 45.140461,107.973984 45.203651,112.972000 
	C45.155460,118.013985 45.107273,123.055962 45.040573,129.010071 
	C45.022064,133.103882 45.022064,136.285583 45.022064,139.398407 
	C42.157001,139.639664 40.210407,139.803574 38.263809,139.967484 
z"/>
<path fill="#E8F6F9" opacity="1.000000" stroke="none" 
	d="
M39.476944,86.457558 
	C34.783745,83.368210 33.509659,79.296089 36.416203,76.799362 
	C37.817738,75.595444 40.148129,74.769501 41.970703,74.909317 
	C45.482159,75.178696 46.866440,77.829941 46.897179,81.589264 
	C45.549843,85.006729 43.458012,86.898224 39.476944,86.457558 
z"/>
<path fill="#FBFBFD" opacity="1.000000" stroke="none" 
	d="
M51.357494,101.866196 
	C51.319508,100.527252 51.281521,99.188301 51.506916,97.563087 
	C51.770294,97.276817 52.177013,97.378220 52.291466,97.396912 
	C52.651276,97.389511 52.843391,97.270706 53.317192,97.032669 
	C54.099567,97.021217 54.547020,97.036285 55.019875,97.403923 
	C55.698013,99.505165 56.350746,101.253830 56.933296,103.360374 
	C56.575874,105.145081 56.288639,106.571907 55.715164,108.125511 
	C54.323212,107.937157 53.217491,107.622025 52.105469,106.906036 
	C52.129208,105.971664 52.159256,105.438164 52.338196,104.689011 
	C52.385319,103.658638 52.283546,102.843903 51.979618,101.968620 
	C51.777462,101.908073 51.357494,101.866196 51.357494,101.866196 
z"/>
<path fill="#3B9AAE" opacity="1.000000" stroke="none" 
	d="
M38.402184,140.203781 
	C40.210407,139.803574 42.157001,139.639664 45.022064,139.398407 
	C45.022064,136.285583 45.022064,133.103882 45.112495,129.473770 
	C46.737236,130.878754 44.833427,135.053772 49.601803,134.993500 
	C49.777122,136.101746 49.573822,137.195572 49.243927,138.594391 
	C47.305435,140.831558 45.493538,142.763733 43.366920,144.815857 
	C42.527485,144.015396 42.002773,143.095016 41.146545,142.073151 
	C40.056870,141.461151 39.298714,140.950607 38.402184,140.203781 
z"/>
<path fill="#3A8EA1" opacity="1.000000" stroke="none" 
	d="
M50.998493,133.002808 
	C50.998493,133.002808 50.502998,133.024658 50.255219,133.033142 
	C50.166439,124.271187 50.325439,115.500740 50.779552,106.660645 
	C51.160042,106.775719 51.245411,106.960442 51.288147,107.528503 
	C51.308983,108.937645 51.372444,109.963448 51.346951,111.296539 
	C51.272446,112.029037 51.286896,112.454247 51.208179,113.252533 
	C51.179157,114.130608 51.243301,114.635612 51.268143,115.588791 
	C51.254555,119.646439 51.280266,123.255913 51.209301,127.224579 
	C51.170582,128.071472 51.228539,128.559158 51.241096,129.441483 
	C51.129967,130.891678 51.064228,131.947235 50.998493,133.002808 
z"/>
<path fill="#BAE4E8" opacity="1.000000" stroke="none" 
	d="
M54.994469,97.051346 
	C54.547020,97.036285 54.099567,97.021217 53.105766,97.086380 
	C52.559410,97.166603 52.177013,97.378220 52.177013,97.378220 
	C52.177013,97.378220 51.770294,97.276817 51.590485,97.169167 
	C54.923794,95.172241 57.218262,95.373734 60.727962,97.934158 
	C61.576481,98.119705 62.036743,98.216721 62.847595,98.658913 
	C63.135750,99.338303 63.073318,99.672508 62.742779,100.068329 
	C62.043751,100.438004 61.612831,100.746071 61.026611,101.263512 
	C60.572460,101.642426 60.273605,101.811966 59.811256,101.687958 
	C58.096657,99.946716 56.545563,98.499039 54.994469,97.051346 
z"/>
<path fill="#3B9AAE" opacity="1.000000" stroke="none" 
	d="
M45.388966,112.609467 
	C45.140461,107.973984 45.077271,102.975967 45.083145,97.521973 
	C45.292900,102.126305 45.433590,107.186615 45.388966,112.609467 
z"/>
<path fill="#BAE4E8" opacity="1.000000" stroke="none" 
	d="
M51.330776,107.145164 
	C51.245411,106.960442 51.160042,106.775719 50.979004,106.301270 
	C50.969219,104.899788 51.055096,103.788025 51.249233,102.271225 
	C51.357494,101.866196 51.777462,101.908073 51.944130,102.327698 
	C52.136963,103.466431 52.163136,104.185547 52.189304,104.904655 
	C52.159256,105.438164 52.129208,105.971664 51.907688,106.873245 
	C51.716213,107.241318 51.330776,107.145164 51.330776,107.145164 
z"/>
<path fill="#F5FBFB" opacity="1.000000" stroke="none" 
	d="
M63.010887,100.006721 
	C63.073318,99.672508 63.135750,99.338303 63.189774,98.749046 
	C63.354069,98.412285 63.526775,98.330574 64.224594,98.106575 
	C65.157089,97.657906 65.564461,97.351517 65.971840,97.045128 
	C65.971840,97.045128 66.325630,96.857399 66.951889,96.889908 
	C72.791183,97.194366 78.004227,97.466309 83.217262,97.738251 
	C83.217262,97.738251 83.261009,97.787590 83.261581,98.114426 
	C85.173332,101.279907 87.084511,104.118561 88.995697,106.957214 
	C88.995697,106.957214 89.051819,106.980797 88.999535,107.399643 
	C88.759315,115.878807 87.833458,124.011711 88.616989,131.976456 
	C89.243500,138.344910 86.161469,138.343674 81.863167,138.120697 
	C81.783890,137.074036 81.704620,136.027390 81.751724,134.233521 
	C81.861038,133.243942 81.843979,133.001602 81.826920,132.759247 
	C81.759109,126.869110 81.691307,120.978973 81.864571,114.357910 
	C81.762169,112.089073 81.418701,110.551163 81.075226,109.013260 
	C81.075226,109.013260 80.874428,108.697952 80.894684,108.113190 
	C80.965393,103.392342 77.845016,103.380219 75.014214,102.991470 
	C75.014214,102.991470 75.001869,103.002342 74.753929,102.751541 
	C69.519966,100.506226 65.928932,101.639351 63.949192,105.831879 
	C63.949192,105.831879 63.531090,105.961365 62.970543,106.020493 
	C61.620941,106.759590 60.831890,107.439560 60.042831,108.119522 
	C60.025875,109.474609 60.008923,110.829697 59.758644,112.761971 
	C59.552544,113.912399 59.579765,114.485641 59.606987,115.058884 
	C59.509525,121.400291 59.412064,127.741707 58.883781,134.412994 
	C56.359688,132.153931 54.266415,129.564987 51.958302,126.933060 
	C51.743465,126.890083 51.305977,126.865379 51.305977,126.865379 
	C51.280266,123.255913 51.254555,119.646439 51.489067,115.575554 
	C51.749287,115.114136 52.182873,115.025444 52.525681,114.982376 
	C55.883705,113.515434 57.413933,111.421249 56.001404,107.998734 
	C56.288639,106.571907 56.575874,105.145081 57.244202,103.304504 
	C58.408443,102.587662 59.191597,102.284584 59.974754,101.981506 
	C60.273605,101.811966 60.572460,101.642426 61.280014,101.181870 
	C62.129436,100.596146 62.570164,100.301430 63.010887,100.006721 
z"/>
<path fill="#FAFBFB" opacity="1.000000" stroke="none" 
	d="
M104.160294,112.746544 
	C103.700035,118.242500 103.334610,123.488152 103.014900,128.736588 
	C102.924088,130.227402 103.340767,131.864380 102.853134,133.186676 
	C102.239632,134.850220 100.936455,136.259445 99.930855,137.778397 
	C98.843643,136.415817 97.736420,135.068436 96.682182,133.680801 
	C96.390564,133.296951 96.256538,132.793381 95.733681,131.686127 
	C95.329178,124.000046 95.241203,116.972580 95.153236,109.945114 
	C95.216721,109.767082 95.280197,109.589043 95.380440,109.129738 
	C95.897781,106.317337 96.225609,103.743423 96.918076,101.271652 
	C97.313095,99.861649 98.202461,97.613632 99.047638,97.529213 
	C100.402542,97.393890 101.905533,98.741287 103.553505,99.734283 
	C104.480064,100.268044 105.525925,100.964050 105.859459,100.713142 
	C107.074364,99.799225 108.051201,98.568855 109.542862,97.671783 
	C112.034973,99.728806 112.260361,99.594208 113.017204,96.064896 
	C113.815384,95.823944 114.613564,95.582985 115.879318,95.664612 
	C115.893951,98.274437 115.441017,100.561684 114.988075,102.848923 
	C110.333435,102.268097 107.147408,104.105110 105.124191,109.078018 
	C104.606720,110.194145 104.525764,110.807419 104.444809,111.420700 
	C104.387367,111.779564 104.329918,112.138428 104.160294,112.746544 
z"/>
<path fill="#D6F7F7" opacity="1.000000" stroke="none" 
	d="
M81.909531,138.514923 
	C86.161469,138.343674 89.243500,138.344910 88.616989,131.976456 
	C87.833458,124.011711 88.759315,115.878807 88.985229,107.426514 
	C89.023209,107.034531 89.308060,107.035454 89.449417,107.027115 
	C89.728851,116.790176 89.945290,126.561417 89.966560,136.333069 
	C89.975121,140.264511 87.841301,140.885529 81.909531,138.514923 
z"/>
<path fill="#2D8B99" opacity="1.000000" stroke="none" 
	d="
M94.898041,110.279915 
	C95.241203,116.972580 95.329178,124.000046 95.468979,131.490692 
	C95.361938,133.673721 95.203064,135.393585 94.971970,137.541412 
	C94.814117,128.851151 94.728477,119.732933 94.898041,110.279915 
z"/>
<path fill="#D6F7F7" opacity="1.000000" stroke="none" 
	d="
M64.314812,105.770882 
	C65.928932,101.639351 69.519966,100.506226 74.754471,102.744614 
	C71.562103,103.895622 68.121269,104.802750 64.314812,105.770882 
z"/>
<path fill="#D6F7F7" opacity="1.000000" stroke="none" 
	d="
M75.195892,103.275803 
	C77.845016,103.380219 80.965393,103.392342 80.881149,107.926765 
	C79.024086,106.736786 77.200836,105.148460 75.195892,103.275803 
z"/>
<path fill="#D6F7F7" opacity="1.000000" stroke="none" 
	d="
M81.055542,109.391617 
	C81.418701,110.551163 81.762169,112.089073 81.945946,113.907547 
	C81.536125,112.715408 81.285995,111.242683 81.055542,109.391617 
z"/>
<path fill="#F8FDFC" opacity="1.000000" stroke="none" 
	d="
M60.357033,108.076035 
	C60.831890,107.439560 61.620941,106.759590 62.754932,106.057976 
	C62.776943,106.474846 62.454018,106.913368 62.028748,107.609726 
	C61.508011,107.922562 61.089619,107.977554 60.357033,108.076035 
z"/>
<path fill="#D6F7F7" opacity="1.000000" stroke="none" 
	d="
M81.713646,132.923737 
	C81.843979,133.001602 81.861038,133.243942 81.839478,133.847168 
	C81.714470,133.965591 81.609070,133.727661 81.549973,133.478729 
	C81.521614,133.359283 81.580818,133.219040 81.713646,132.923737 
z"/>
<path fill="#EEF9F9" opacity="1.000000" stroke="none" 
	d="
M137.878510,115.956017 
	C138.365372,113.598351 138.852249,111.240677 139.613052,108.286667 
	C140.101578,107.193451 140.316177,106.696571 140.530762,106.199692 
	C140.782013,106.073555 140.951553,105.876961 141.348129,105.224976 
	C141.972321,104.255608 142.287811,103.671158 142.603287,103.086708 
	C143.614578,102.183792 144.625885,101.280876 146.105164,100.070999 
	C147.355957,99.162651 148.138779,98.561256 148.921600,97.959862 
	C148.921600,97.959862 148.970535,97.991318 148.974625,97.962502 
	C149.311172,97.949364 149.596451,97.840935 149.952087,97.405243 
	C157.405609,94.518349 164.682861,93.657547 171.662857,98.185066 
	C174.172195,99.812737 176.534073,101.667793 179.332672,103.366554 
	C179.906784,103.834282 180.111481,104.354538 180.599716,104.986023 
	C180.944244,105.804672 181.005234,106.512100 180.883713,107.859619 
	C180.695557,109.754272 180.678162,111.008896 180.686432,112.263359 
	C180.712646,116.241814 180.828461,120.221855 180.746231,124.197906 
	C180.706070,126.140434 180.303970,128.075470 180.065674,130.013901 
	C180.065674,130.013901 180.052063,130.034988 179.849579,130.190155 
	C179.405319,130.564133 179.200760,130.813492 179.033447,131.093414 
	C179.029922,131.380310 178.949173,131.643524 178.263641,132.089920 
	C177.207657,133.047623 176.679245,133.798431 176.150833,134.549255 
	C176.074600,134.856308 175.911377,135.106628 175.253830,135.186127 
	C173.575302,135.381409 172.304092,135.690796 170.837204,135.787277 
	C170.427689,135.043884 170.213867,134.513397 169.997772,133.592316 
	C169.959641,132.419724 169.923767,131.637741 169.923355,130.913681 
	C169.958801,130.971619 169.860413,130.877930 170.238983,130.878693 
	C175.879089,128.453033 177.728638,123.352310 174.974182,118.557487 
	C174.624451,107.775719 168.449265,102.390366 157.733414,103.244232 
	C157.131287,103.191414 156.858124,103.341362 156.655899,103.629143 
	C156.637589,103.604309 156.576126,103.609695 156.277100,103.622292 
	C155.284607,103.998558 154.591141,104.362228 153.564285,104.767151 
	C152.418747,105.503967 151.606628,106.199532 150.582062,107.006325 
	C150.145966,107.362930 150.016479,107.650688 149.709198,108.134857 
	C148.667053,109.524803 147.896881,110.760719 146.759674,112.037300 
	C142.953598,113.563667 143.169098,115.221489 146.253494,117.373993 
	C146.359818,118.485138 146.373016,119.232346 146.014130,120.000214 
	C143.926346,120.799805 142.210663,121.578728 140.577896,122.320000 
	C139.735565,120.334175 138.807037,118.145096 137.878510,115.956017 
z"/>
<path fill="#FAFBFB" opacity="1.000000" stroke="none" 
	d="
M133.446167,106.999084 
	C133.314972,112.221527 133.108398,117.100136 133.002914,121.980919 
	C132.924118,125.627182 133.166275,129.291855 132.869583,132.915909 
	C132.760864,134.243729 131.512741,135.478241 130.784378,136.755325 
	C129.533508,135.503281 127.320000,134.334671 127.202972,132.984344 
	C126.760689,127.881378 127.043198,122.718689 126.956963,117.579987 
	C126.929565,115.947243 126.598618,114.319603 126.175873,112.346115 
	C125.945168,112.002602 125.783127,111.715164 125.837997,111.179924 
	C125.908134,110.396652 125.923409,110.148613 125.938675,109.900566 
	C125.939087,109.529060 125.939491,109.157562 125.898766,108.139496 
	C124.860458,106.686638 123.863289,105.880341 122.866119,105.074051 
	C122.548073,105.015007 122.292931,104.855415 121.966431,104.028526 
	C122.264397,101.201599 122.696594,98.941399 123.128799,96.681198 
	C127.809677,96.877617 129.780716,100.640770 132.617126,103.785118 
	C133.083572,104.824730 133.248886,105.740456 133.446167,106.999084 
z"/>
<path fill="#E0F7F5" opacity="1.000000" stroke="none" 
	d="
M122.987518,96.337021 
	C122.696594,98.941399 122.264397,101.201599 121.879875,103.815384 
	C119.875565,103.776726 117.823578,103.384491 115.379829,102.920586 
	C115.441017,100.561684 115.893951,98.274437 116.197166,95.694077 
	C118.313713,95.598251 120.579971,95.795547 122.987518,96.337021 
M119.499954,96.478630 
	C119.499954,96.478630 119.518929,96.523796 119.499954,96.478630 
z"/>
<path fill="#47B9CB" opacity="1.000000" stroke="none" 
	d="
M140.147766,106.153412 
	C140.316177,106.696571 140.101578,107.193451 139.705658,107.893639 
	C138.375092,107.367775 137.225861,106.638603 136.083557,105.596237 
	C137.315247,105.557747 138.539993,105.832443 140.147766,106.153412 
z"/>
<path fill="#E0F7F5" opacity="1.000000" stroke="none" 
	d="
M112.717270,96.040070 
	C112.260361,99.594208 112.034973,99.728806 109.884338,97.562790 
	C110.672928,96.831589 111.545128,96.423416 112.717270,96.040070 
z"/>
<path fill="#47B9CB" opacity="1.000000" stroke="none" 
	d="
M148.600082,97.988464 
	C148.138779,98.561256 147.355957,99.162651 146.283844,99.837418 
	C146.755890,99.279549 147.517227,98.648300 148.600082,97.988464 
z"/>
<path fill="#47B9CB" opacity="1.000000" stroke="none" 
	d="
M142.312668,103.268600 
	C142.287811,103.671158 141.972321,104.255608 141.379791,105.028656 
	C141.409164,104.628342 141.715607,104.039413 142.312668,103.268600 
z"/>
<path fill="#D6F7F7" opacity="1.000000" stroke="none" 
	d="
M82.963440,97.469040 
	C78.004227,97.466309 72.791183,97.194366 67.151756,96.877464 
	C72.128838,93.674126 77.433411,94.819794 82.963440,97.469040 
z"/>
<path fill="#D6F7F7" opacity="1.000000" stroke="none" 
	d="
M89.002815,106.581421 
	C87.084511,104.118561 85.173332,101.279907 83.257675,98.081573 
	C85.172112,100.549797 87.091026,103.377716 89.002815,106.581421 
z"/>
<path fill="#2BC1E4" opacity="1.000000" stroke="none" 
	d="
M76.427490,91.482574 
	C77.354645,92.021622 77.993393,92.467621 78.632141,92.913628 
	C78.570663,93.228828 78.509193,93.544029 78.447723,93.859230 
	C77.194794,93.594322 75.941856,93.329414 74.688927,93.064514 
	C75.172310,92.506187 75.655693,91.947861 76.427490,91.482574 
z"/>
<path fill="#2BC1E4" opacity="1.000000" stroke="none" 
	d="
M80.087982,91.565323 
	C80.044937,91.614883 79.896721,91.435699 79.896721,91.435699 
	C79.896721,91.435699 80.131020,91.515762 80.087982,91.565323 
z"/>
<path fill="#D6F7F7" opacity="1.000000" stroke="none" 
	d="
M65.696960,97.043106 
	C65.564461,97.351517 65.157089,97.657906 64.497269,98.018341 
	C64.637245,97.728615 65.029663,97.384850 65.696960,97.043106 
z"/>
<path fill="#259DB1" opacity="1.000000" stroke="none" 
	d="
M193.009857,128.006516 
	C192.566803,128.008896 192.123764,128.011276 191.348755,128.012482 
	C191.239075,124.393158 189.612457,120.310654 193.790863,117.383202 
	C195.208557,116.660606 196.456238,116.198242 197.832596,115.423874 
	C198.242508,114.576759 198.523743,114.041656 199.175186,113.228973 
	C199.545395,112.951401 200.037781,112.934883 200.037781,112.934883 
	C200.037781,112.934883 200.034119,112.958595 200.049881,112.957718 
	C200.780563,114.266449 201.495468,115.576057 202.488892,117.045708 
	C202.823059,117.629845 202.878723,118.053940 202.963699,119.024780 
	C202.993011,119.571526 202.987244,120.025368 202.579453,120.023659 
	C198.108063,120.463409 193.562592,120.166313 193.011780,126.331467 
	C193.009003,127.113159 193.009430,127.559837 193.009857,128.006516 
z"/>
<path fill="#1E9AB1" opacity="1.000000" stroke="none" 
	d="
M188.866760,128.881149 
	C188.946655,131.198608 188.737335,133.338715 188.068176,135.582123 
	C186.389725,135.127960 185.171112,134.570526 183.952484,134.013092 
	C184.158585,131.512177 184.364670,129.011246 184.764282,126.215759 
	C186.164383,126.848740 187.370972,127.776276 188.866760,128.881149 
z"/>
<path fill="#259DB1" opacity="1.000000" stroke="none" 
	d="
M201.329285,132.911560 
	C200.366943,131.238495 199.744492,129.479279 199.394714,127.365791 
	C202.375504,127.040123 204.029617,125.935478 204.012772,122.973770 
	C204.044830,122.947769 204.108582,122.895294 204.108582,122.895294 
	C204.966675,123.423325 205.824768,123.951347 206.841522,124.748131 
	C205.223190,127.619736 203.446182,130.222580 201.329285,132.911560 
z"/>
<path fill="#2FBBD3" opacity="1.000000" stroke="none" 
	d="
M200.041626,112.541962 
	C200.037781,112.934883 199.545395,112.951401 199.299255,112.951172 
	C198.980133,110.620956 198.907166,108.290977 198.788315,105.525955 
	C203.088547,106.721443 199.264603,109.860306 200.041626,112.541962 
z"/>
<path fill="#F5FDFA" opacity="1.000000" stroke="none" 
	d="
M196.111572,114.518913 
	C195.193573,114.811829 194.465942,114.851860 193.215469,114.620377 
	C191.939438,113.833466 191.186264,113.318062 190.433105,112.802658 
	C190.365067,111.489548 190.297028,110.176430 190.240509,108.471222 
	C192.403519,107.578964 194.555023,107.078812 196.706512,106.578644 
	C196.571671,109.141106 196.436829,111.703560 196.111572,114.518913 
z"/>
<path fill="#3093B5" opacity="1.000000" stroke="none" 
	d="
M193.014969,125.996460 
	C193.562592,120.166313 198.108063,120.463409 202.647186,120.305084 
	C203.430420,121.073471 203.738159,121.558723 204.045883,122.043976 
	C204.045883,122.043976 204.083389,122.470482 204.095978,122.682892 
	C204.108582,122.895294 204.044830,122.947769 203.676575,123.050903 
	C201.204758,124.103455 199.101227,125.052887 196.599197,126.001953 
	C195.138794,125.999870 194.076889,125.998161 193.014969,125.996460 
z"/>
<path fill="#2C98AF" opacity="1.000000" stroke="none" 
	d="
M204.028656,121.719872 
	C203.738159,121.558723 203.430420,121.073471 203.054962,120.306793 
	C202.987244,120.025368 202.993011,119.571526 202.991165,119.345856 
	C203.330032,119.878716 203.670731,120.637245 204.028656,121.719872 
z"/>
<path fill="#B8EDF7" opacity="1.000000" stroke="none" 
	d="
M190.363266,113.155220 
	C191.186264,113.318062 191.939438,113.833466 192.852097,114.573029 
	C192.105530,114.367386 191.199493,113.937584 190.363266,113.155220 
z"/>
<path fill="#BAE4E8" opacity="1.000000" stroke="none" 
	d="
M171.573227,169.161865 
	C171.607391,169.986801 171.420547,170.695206 171.233688,171.403610 
	C171.011963,171.338821 170.790222,171.274017 170.568481,171.209213 
	C170.829727,170.487915 171.090958,169.766632 171.573227,169.161865 
z"/>
<path fill="#B8EDF7" opacity="1.000000" stroke="none" 
	d="
M176.625198,170.026550 
	C176.713287,170.322113 176.464081,170.557053 175.994202,170.925385 
	C175.072037,170.973511 174.370529,170.888245 173.669037,170.802979 
	C173.681107,170.578186 173.693192,170.353378 173.705276,170.128586 
	C174.566147,170.074371 175.427032,170.020157 176.625198,170.026550 
z"/>
<path fill="#4499AD" opacity="1.000000" stroke="none" 
	d="
M152.090363,168.636719 
	C151.812561,168.463791 151.484238,167.992523 151.107101,167.231583 
	C151.385483,167.407394 151.712677,167.872894 152.090363,168.636719 
z"/>
<path fill="#E0F7F5" opacity="1.000000" stroke="none" 
	d="
M122.970062,105.377731 
	C123.863289,105.880341 124.860458,106.686638 125.874725,107.860825 
	C124.952553,107.379616 124.013283,106.530518 122.970062,105.377731 
z"/>
<path fill="#BAE8ED" opacity="1.000000" stroke="none" 
	d="
M104.626328,111.169662 
	C104.525764,110.807419 104.606720,110.194145 104.898132,109.343704 
	C105.008339,109.710571 104.908096,110.314598 104.626328,111.169662 
z"/>
<path fill="#D8FCFB" opacity="1.000000" stroke="none" 
	d="
M125.697861,110.009697 
	C125.923409,110.148613 125.908134,110.396652 125.847878,111.015244 
	C125.687607,110.963478 125.572327,110.541153 125.697861,110.009697 
z"/>
<path fill="#2C98AF" opacity="1.000000" stroke="none" 
	d="
M183.657501,134.213440 
	C185.171112,134.570526 186.389725,135.127960 187.870392,135.927704 
	C187.070694,140.234680 186.008942,144.299332 184.976608,148.677643 
	C183.556854,148.351608 182.107666,147.711945 180.420761,146.729645 
	C181.024231,145.107178 181.865402,143.827362 183.376755,141.527893 
	C179.176895,141.742111 177.251663,142.748795 176.998505,146.028854 
	C176.567825,146.035873 176.137131,146.042908 175.384903,146.061295 
	C171.802750,144.936584 168.542145,143.800522 165.135330,142.338989 
	C168.306107,140.788605 171.660614,139.654938 174.928757,138.311249 
	C177.790405,137.134674 180.555038,135.722092 183.657501,134.213440 
z"/>
<path fill="#EDFAFB" opacity="1.000000" stroke="none" 
	d="
M146.369934,136.093079 
	C145.179092,135.036407 144.320465,134.103394 143.515076,132.750122 
	C143.713165,132.218948 143.858032,132.108047 144.342667,132.075134 
	C147.773331,133.770081 150.864212,135.387070 154.341995,137.164093 
	C160.082550,137.476593 165.436234,137.629059 170.865585,137.860275 
	C170.941269,137.939041 171.092529,138.096649 171.092529,138.096649 
	C162.580719,142.422012 154.447098,141.840714 146.369934,136.093079 
z"/>
<path fill="#EDFAFB" opacity="1.000000" stroke="none" 
	d="
M180.359863,129.811401 
	C180.303970,128.075470 180.706070,126.140434 180.746231,124.197906 
	C180.828461,120.221855 180.712646,116.241814 180.686432,112.263359 
	C180.678162,111.008896 180.695557,109.754272 180.930450,108.213905 
	C185.510391,115.260429 184.463379,122.466873 180.359863,129.811401 
z"/>
<path fill="#EDFAFB" opacity="1.000000" stroke="none" 
	d="
M171.032867,136.000198 
	C172.304092,135.690796 173.575302,135.381409 175.049225,135.285568 
	C174.073044,136.332443 172.894150,137.165787 171.403900,138.047882 
	C171.092529,138.096649 170.941269,137.939041 170.923553,137.567535 
	C170.948196,136.797409 170.990540,136.398804 171.032867,136.000198 
z"/>
<path fill="#EDFAFB" opacity="1.000000" stroke="none" 
	d="
M176.468964,134.411957 
	C176.679245,133.798431 177.207657,133.047623 178.096619,132.215057 
	C177.900482,132.847076 177.343796,133.560867 176.468964,134.411957 
z"/>
<path fill="#EDFAFB" opacity="1.000000" stroke="none" 
	d="
M179.264969,130.983780 
	C179.200760,130.813492 179.405319,130.564133 179.838959,130.196838 
	C179.852707,130.323608 179.674591,130.598877 179.264969,130.983780 
z"/>
<path fill="#EDFAFB" opacity="1.000000" stroke="none" 
	d="
M137.746704,116.391098 
	C138.807037,118.145096 139.735565,120.334175 140.577896,122.320000 
	C142.210663,121.578728 143.926346,120.799805 146.149933,120.294540 
	C146.801437,121.637886 146.945068,122.707573 146.982117,124.107613 
	C145.347931,126.741051 142.145615,128.407715 144.002899,131.997147 
	C143.858032,132.108047 143.713165,132.218948 143.341461,132.483887 
	C138.781143,128.237000 137.487167,122.778847 137.746704,116.391098 
z"/>
<path fill="#3195AB" opacity="1.000000" stroke="none" 
	d="
M177.252411,146.223602 
	C177.251663,142.748795 179.176895,141.742111 183.376755,141.527893 
	C181.865402,143.827362 181.024231,145.107178 180.076065,146.691483 
	C179.148163,146.803436 178.327240,146.610901 177.252411,146.223602 
z"/>
<path fill="#2C98AF" opacity="1.000000" stroke="none" 
	d="
M173.860870,156.338409 
	C175.557571,152.535416 176.326157,154.667801 177.009811,157.214752 
	C176.014587,157.001205 175.019363,156.787659 173.860870,156.338409 
z"/>
<path fill="#2F99B2" opacity="1.000000" stroke="none" 
	d="
M172.037689,147.060608 
	C172.063629,147.090408 171.654129,147.298233 171.654129,147.298233 
	C171.654129,147.298233 171.205933,147.251785 171.079193,147.162155 
	C170.952454,147.072525 170.992737,147.023987 171.244339,147.003021 
	C171.495941,146.982071 171.955917,146.974930 171.955917,146.974930 
	C171.955917,146.974930 172.011734,147.030823 172.037689,147.060608 
z"/>
<path fill="#2C98AF" opacity="1.000000" stroke="none" 
	d="
M196.997681,126.002319 
	C199.101227,125.052887 201.204758,124.103455 203.644501,123.076904 
	C204.029617,125.935478 202.375504,127.040123 199.271545,127.035126 
	C198.457504,127.065315 198.039291,127.071915 197.308228,126.807747 
	C196.996155,126.358757 196.996918,126.180534 196.997681,126.002319 
z"/>
<path fill="#2F99B2" opacity="1.000000" stroke="none" 
	d="
M196.599197,126.001953 
	C196.996918,126.180534 196.996155,126.358757 196.993317,126.805267 
	C195.894257,127.379898 194.797287,127.686241 193.355072,127.999550 
	C193.009430,127.559837 193.009003,127.113159 193.011780,126.331467 
	C194.076889,125.998161 195.138794,125.999870 196.599197,126.001953 
z"/>
<path fill="#F8FDFC" opacity="1.000000" stroke="none" 
	d="
M52.173138,126.976028 
	C54.266415,129.564987 56.359688,132.153931 58.784565,134.872589 
	C59.166306,135.450119 59.216446,135.897919 58.814495,136.721832 
	C56.112457,137.078384 53.862507,137.058838 51.612556,137.039307 
	C51.474979,135.912476 51.337406,134.785629 51.099163,133.330811 
	C51.064228,131.947235 51.129967,130.891678 51.421555,129.220306 
	C51.822651,128.061691 51.997894,127.518860 52.173138,126.976028 
z"/>
<path fill="#F5FBFB" opacity="1.000000" stroke="none" 
	d="
M51.538773,137.354797 
	C53.862507,137.058838 56.112457,137.078384 58.717892,137.048737 
	C59.073376,136.999542 59.255173,137.347244 59.266338,137.542908 
	C59.177368,137.895294 59.077232,138.052032 58.854733,138.459045 
	C57.280724,138.887970 55.829075,139.066635 53.951721,139.392975 
	C53.526009,139.540665 53.118656,139.553482 52.815681,139.225189 
	C52.204044,138.700211 51.895382,138.503510 51.586723,138.306808 
	C51.546146,138.094635 51.505566,137.882477 51.538773,137.354797 
z"/>
<path fill="#BAE4E8" opacity="1.000000" stroke="none" 
	d="
M59.714783,114.723068 
	C59.579765,114.485641 59.552544,113.912399 59.671341,113.161064 
	C59.819099,113.451065 59.820839,113.919167 59.714783,114.723068 
z"/>
<path fill="#2C98AF" opacity="1.000000" stroke="none" 
	d="
M171.853912,146.885605 
	C171.955917,146.974930 171.495941,146.982071 171.266388,146.980484 
	C171.238251,146.743912 171.476608,146.683044 171.853912,146.885605 
z"/>
<path fill="#3A999E" opacity="1.000000" stroke="none" 
	d="
M167.508575,145.511322 
	C167.487885,145.518936 167.529282,145.503693 167.508575,145.511322 
z"/>
<path fill="#BAE4E8" opacity="1.000000" stroke="none" 
	d="
M51.664726,138.589401 
	C51.895382,138.503510 52.204044,138.700211 52.624283,139.155243 
	C52.404819,139.233063 52.073776,139.052521 51.664726,138.589401 
z"/>
<path fill="#F8FDFC" opacity="1.000000" stroke="none" 
	d="
M55.715164,108.125511 
	C57.413933,111.421249 55.883705,113.515434 52.490280,114.641174 
	C52.127319,113.886581 52.142567,113.430122 52.387917,112.894058 
	C52.223980,112.206047 51.829945,111.597641 51.435905,110.989243 
	C51.372444,109.963448 51.308983,108.937645 51.288147,107.528503 
	C51.330776,107.145164 51.716213,107.241318 51.913994,107.274109 
	C53.217491,107.622025 54.323212,107.937157 55.715164,108.125511 
z"/>
<path fill="#F8FDFC" opacity="1.000000" stroke="none" 
	d="
M59.811256,101.687958 
	C59.191597,102.284584 58.408443,102.587662 57.314384,102.946625 
	C56.350746,101.253830 55.698013,99.505165 55.019875,97.403931 
	C56.545563,98.499039 58.096657,99.946716 59.811256,101.687958 
z"/>
<path fill="#F8FDFC" opacity="1.000000" stroke="none" 
	d="
M52.338196,104.689011 
	C52.163136,104.185547 52.136963,103.466431 52.146286,102.388245 
	C52.283546,102.843903 52.385319,103.658638 52.338196,104.689011 
z"/>
<path fill="#F8FDFC" opacity="1.000000" stroke="none" 
	d="
M52.291466,97.396912 
	C52.177013,97.378220 52.559410,97.166603 52.770836,97.112900 
	C52.843391,97.270706 52.651276,97.389511 52.291466,97.396912 
z"/>
<path fill="#F5FBFB" opacity="1.000000" stroke="none" 
	d="
M51.346951,111.296539 
	C51.829945,111.597641 52.223980,112.206047 52.175140,112.854828 
	C51.732258,112.895210 51.301346,112.879456 51.301346,112.879456 
	C51.286896,112.454247 51.272446,112.029037 51.346951,111.296539 
z"/>
<path fill="#BAE4E8" opacity="1.000000" stroke="none" 
	d="
M51.958302,126.933060 
	C51.997894,127.518860 51.822651,128.061691 51.466949,128.825684 
	C51.228539,128.559158 51.170582,128.071472 51.209301,127.224579 
	C51.305977,126.865379 51.743465,126.890083 51.958302,126.933060 
z"/>
<path fill="#BAE4E8" opacity="1.000000" stroke="none" 
	d="
M51.208179,113.252533 
	C51.301346,112.879456 51.732258,112.895210 51.945038,112.934433 
	C52.142567,113.430122 52.127319,113.886581 52.147476,114.684242 
	C52.182873,115.025444 51.749287,115.114136 51.528366,115.127373 
	C51.243301,114.635612 51.179157,114.130608 51.208179,113.252533 
z"/>
<path fill="#D6F7F7" opacity="1.000000" stroke="none" 
	d="
M62.742779,100.068329 
	C62.570164,100.301430 62.129436,100.596146 61.435310,100.972496 
	C61.612831,100.746071 62.043751,100.438004 62.742779,100.068329 
z"/>
<path fill="#2C99AD" opacity="1.000000" stroke="none" 
	d="
M153.897690,104.725906 
	C154.591141,104.362228 155.284607,103.998558 156.387756,103.970253 
	C156.867096,104.538269 156.936768,104.770920 156.818420,105.260368 
	C156.926437,110.557114 160.209137,110.683617 164.268250,110.192467 
	C165.833740,110.901283 167.120926,111.408325 168.516235,111.957954 
	C167.271103,116.578606 166.136475,120.789246 164.661133,125.078018 
	C161.866119,126.439819 159.411835,127.723495 156.600433,128.998764 
	C154.833649,127.990173 153.423981,126.989990 152.000214,125.704315 
	C151.974670,125.228554 151.963196,125.038277 151.935150,124.686317 
	C151.918564,124.524635 151.926376,124.199669 151.974609,123.823029 
	C152.603775,119.088203 153.184692,114.730026 153.844833,109.777588 
	C151.806915,110.419273 150.902710,110.703979 149.999359,110.612503 
	C149.993866,109.484489 149.987518,108.732651 149.981171,107.980812 
	C150.016479,107.650688 150.145966,107.362930 150.920868,106.979294 
	C152.280640,106.135986 153.089157,105.430946 153.897690,104.725906 
z"/>
<path fill="#3298AE" opacity="1.000000" stroke="none" 
	d="
M157.006454,105.003578 
	C156.936768,104.770920 156.867096,104.538269 156.686768,103.957657 
	C156.576126,103.609695 156.637589,103.604309 156.889618,103.634483 
	C157.454834,103.616577 157.731995,103.489799 157.973129,103.284332 
	C168.449265,102.390366 174.624451,107.775719 174.654495,118.760147 
	C172.817734,123.209930 171.339081,127.043930 169.860413,130.877930 
	C169.860413,130.877930 169.958801,130.971619 169.602112,130.951965 
	C168.498703,131.328140 167.751999,131.723969 166.590363,132.073059 
	C158.324615,134.486832 153.232285,133.180023 150.022858,127.624039 
	C150.426270,126.953064 150.692337,126.504021 151.222198,126.035751 
	C151.662079,126.007622 151.838181,125.998711 152.014297,125.989799 
	C153.423981,126.989990 154.833649,127.990173 156.739929,129.314789 
	C163.145691,133.134232 164.848984,132.116608 165.001831,124.999893 
	C166.136475,120.789246 167.271103,116.578606 168.516235,111.957954 
	C167.120926,111.408325 165.833740,110.901283 164.364410,109.883881 
	C166.053635,106.596634 165.376907,105.106468 161.969528,105.033173 
	C160.315735,104.997597 158.660843,105.011871 157.006454,105.003578 
z"/>
<path fill="#FDFBF4" opacity="1.000000" stroke="none" 
	d="
M170.837189,135.787277 
	C170.990540,136.398804 170.948196,136.797409 170.847870,137.488770 
	C165.436234,137.629059 160.082550,137.476593 154.242035,136.862762 
	C154.455643,135.632950 155.111877,134.253876 155.864059,134.199371 
	C159.562912,133.931458 163.287216,134.015198 167.377213,133.979767 
	C168.501266,133.984161 169.250641,133.983536 170.000031,133.982910 
	C170.213867,134.513397 170.427689,135.043884 170.837189,135.787277 
z"/>
<path fill="#4A97A3" opacity="1.000000" stroke="none" 
	d="
M150.958405,126.054977 
	C150.692337,126.504021 150.426270,126.953064 149.752136,127.483643 
	C148.592255,126.302544 147.840469,125.039909 147.088684,123.777267 
	C146.945068,122.707573 146.801437,121.637886 146.522018,120.273880 
	C146.373016,119.232346 146.359818,118.485138 146.408173,117.041466 
	C146.688721,114.895546 146.907715,113.446083 147.126694,111.996628 
	C147.896881,110.760719 148.667053,109.524803 149.709198,108.134857 
	C149.987518,108.732651 149.993866,109.484489 149.903229,111.012360 
	C149.536804,115.190948 149.267365,118.593498 148.994354,122.234535 
	C149.327423,123.010193 149.664062,123.547379 150.322281,124.100159 
	C151.071350,124.143730 151.498871,124.171700 151.926376,124.199669 
	C151.926376,124.199669 151.918564,124.524635 151.748688,124.870621 
	C151.372025,125.496063 151.165222,125.775528 150.958405,126.054977 
z"/>
<path fill="#EDFAFB" opacity="1.000000" stroke="none" 
	d="
M170.238983,130.878693 
	C171.339081,127.043930 172.817734,123.209930 174.616089,119.173271 
	C177.728638,123.352310 175.879089,128.453033 170.238983,130.878693 
z"/>
<path fill="#EDFAFB" opacity="1.000000" stroke="none" 
	d="
M146.759674,112.037300 
	C146.907715,113.446083 146.688721,114.895546 146.315063,116.677528 
	C143.169098,115.221489 142.953598,113.563667 146.759674,112.037300 
z"/>
<path fill="#EDFAFB" opacity="1.000000" stroke="none" 
	d="
M169.997772,133.592316 
	C169.250641,133.983536 168.501266,133.984161 167.376862,133.670944 
	C167.002991,132.944672 167.004150,132.532242 167.005310,132.119797 
	C167.751999,131.723969 168.498703,131.328140 169.566650,130.894028 
	C169.923767,131.637741 169.959641,132.419724 169.997772,133.592316 
z"/>
<path fill="#4A97A3" opacity="1.000000" stroke="none" 
	d="
M153.564285,104.767151 
	C153.089157,105.430946 152.280640,106.135986 151.133301,106.868065 
	C151.606628,106.199532 152.418747,105.503967 153.564285,104.767151 
z"/>
<path fill="#4A97A3" opacity="1.000000" stroke="none" 
	d="
M157.733414,103.244232 
	C157.731995,103.489799 157.454834,103.616577 156.907928,103.659317 
	C156.858124,103.341362 157.131287,103.191414 157.733414,103.244232 
z"/>
<path fill="#FAFBFB" opacity="1.000000" stroke="none" 
	d="
M119.509445,96.501213 
	C119.518929,96.523796 119.499954,96.478630 119.509445,96.501213 
z"/>
<path fill="#EEF9F9" opacity="1.000000" stroke="none" 
	d="
M166.590363,132.073059 
	C167.004150,132.532242 167.002991,132.944672 167.002197,133.665955 
	C163.287216,134.015198 159.562912,133.931458 155.864059,134.199371 
	C155.111877,134.253876 154.455643,135.632950 153.855148,136.702728 
	C150.864212,135.387070 147.773331,133.770081 144.342667,132.075134 
	C142.145615,128.407715 145.347931,126.741051 146.982117,124.107613 
	C147.840469,125.039909 148.592255,126.302544 149.614777,127.705574 
	C153.232285,133.180023 158.324615,134.486832 166.590363,132.073059 
z"/>
<path fill="#269BB6" opacity="1.000000" stroke="none" 
	d="
M148.997925,121.996056 
	C149.267365,118.593498 149.536804,115.190948 149.902374,111.388535 
	C150.902710,110.703979 151.806915,110.419273 153.844833,109.777588 
	C153.184692,114.730026 152.603775,119.088203 151.974609,123.823029 
	C151.498871,124.171700 151.071350,124.143730 150.266510,123.808441 
	C149.592087,122.999428 149.295013,122.497742 148.997925,121.996056 
z"/>
<path fill="#249BB5" opacity="1.000000" stroke="none" 
	d="
M156.818420,105.260368 
	C158.660843,105.011871 160.315735,104.997597 161.969528,105.033173 
	C165.376907,105.106468 166.053635,106.596634 164.086121,109.682114 
	C160.209137,110.683617 156.926437,110.557114 156.818420,105.260368 
z"/>
<path fill="#249BB5" opacity="1.000000" stroke="none" 
	d="
M164.661133,125.078018 
	C164.848984,132.116608 163.145691,133.134232 157.097046,129.323196 
	C159.411835,127.723495 161.866119,126.439819 164.661133,125.078018 
z"/>
<path fill="#269BB6" opacity="1.000000" stroke="none" 
	d="
M151.222198,126.035759 
	C151.165222,125.775528 151.372025,125.496063 151.765274,125.032303 
	C151.963196,125.038277 151.974670,125.228554 152.000214,125.704315 
	C151.838181,125.998711 151.662079,126.007622 151.222198,126.035759 
z"/>
<path fill="#2C99AD" opacity="1.000000" stroke="none" 
	d="
M148.994354,122.234535 
	C149.295013,122.497742 149.592087,122.999428 149.944946,123.792839 
	C149.664062,123.547379 149.327423,123.010193 148.994354,122.234535 
z"/>
</svg>