<svg version="1.1" id="Layer_1" xmlns="http://www.w3.org/2000/svg" xmlns:xlink="http://www.w3.org/1999/xlink" x="0px" y="0px"
	 width="100%" viewBox="0 0 256 256" enable-background="new 0 0 256 256" xml:space="preserve">
<path fill="#000000" opacity="1.000000" stroke="none" 
	d="
M257.000000,94.000000 
	C257.000000,148.666672 257.000000,202.833328 257.000000,257.000000 
	C171.666672,257.000000 86.333336,257.000000 1.000000,257.000000 
	C1.000000,171.666672 1.000000,86.333336 1.000000,1.000000 
	C86.333336,1.000000 171.666672,1.000000 257.000000,1.000000 
	C257.000000,31.833334 257.000000,62.666668 257.000000,94.000000 
M183.905899,197.055832 
	C183.617966,192.384781 183.330032,187.713730 183.656967,182.755646 
	C184.794708,181.818344 185.906143,180.846817 187.074371,179.949158 
	C196.375885,172.802063 205.706589,165.692657 214.967606,158.493576 
	C215.854706,157.803970 216.784058,156.639130 216.913803,155.597733 
	C217.440475,151.370163 217.712921,147.107910 217.987335,142.852524 
	C218.686249,132.014557 219.319519,121.172356 220.012772,110.334000 
	C220.316803,105.580894 220.720490,100.834259 221.048508,96.082581 
	C221.975250,82.658012 222.886276,69.232353 223.935455,55.081139 
	C214.175613,50.460098 204.489899,45.673931 194.640457,41.252487 
	C174.308472,32.125374 153.942566,23.067421 133.439026,14.337000 
	C130.845581,13.232710 126.993126,13.396464 124.322433,14.466464 
	C114.791344,18.285053 105.560638,22.844980 96.139000,26.946911 
	C75.998009,35.715767 55.798832,44.351028 35.667656,53.142139 
	C34.625267,53.597340 33.994797,54.995815 33.013885,56.882450 
	C34.007977,71.306534 35.047997,85.727638 35.983963,100.155495 
	C37.037849,116.401093 37.851940,132.664185 39.119133,148.892441 
	C39.380035,152.233719 40.181538,156.675003 42.440540,158.522873 
	C52.936428,167.108551 64.032486,174.960510 74.640228,183.864716 
	C74.499557,189.231735 74.358887,194.598740 74.035431,200.818115 
	C74.275810,212.662781 79.578979,222.424896 87.945435,230.091919 
	C99.754799,240.914032 113.926224,245.525131 130.258713,245.213074 
	C147.600067,244.881775 161.840927,238.889618 173.262619,226.151550 
	C180.377625,218.216507 184.048416,208.768951 183.905899,197.055832 
z"/>
<path fill="#799CD2" opacity="1.000000" stroke="none" 
	d="
M223.803482,55.807121 
	C222.886276,69.232353 221.975250,82.658012 221.048508,96.082581 
	C220.720490,100.834259 220.316803,105.580894 220.012772,110.334000 
	C219.319519,121.172356 218.686249,132.014557 217.987335,142.852524 
	C217.712921,147.107910 217.440475,151.370163 216.913803,155.597733 
	C216.784058,156.639130 215.854706,157.803970 214.967606,158.493576 
	C205.706589,165.692657 196.375885,172.802063 187.074371,179.949158 
	C185.906143,180.846817 184.794708,181.818344 183.007645,182.956299 
	C172.215912,190.621750 162.101761,198.125397 151.921783,205.538635 
	C144.306641,211.084122 136.606613,216.513062 128.932861,221.525726 
	C128.733322,204.572083 128.473099,188.087021 128.375641,171.600998 
	C128.254547,151.117996 128.268036,130.634171 128.551147,110.044983 
	C145.764557,100.254982 162.633102,90.540680 179.541092,80.895515 
	C194.272125,72.492203 209.047623,64.166893 223.803482,55.807121 
M207.068680,138.465057 
	C208.431473,118.508453 209.794266,98.551857 211.190262,78.108795 
	C209.765121,78.660988 209.272263,78.768501 208.869293,79.020058 
	C187.246536,92.518349 165.587555,105.960182 144.103897,119.676598 
	C142.497162,120.702431 141.360153,123.693756 141.339920,125.784302 
	C141.138382,146.614288 141.211380,167.446991 141.231598,188.278915 
	C141.232956,189.687332 141.433792,191.095535 141.599915,193.260651 
	C143.666855,191.779251 145.130020,190.755768 146.567062,189.696823 
	C165.078918,176.055634 183.515945,162.310928 202.159164,148.851776 
	C205.669861,146.317291 207.480270,143.596588 207.068680,138.465057 
z"/>
<path fill="#E6DDE3" opacity="1.000000" stroke="none" 
	d="
M128.223404,110.150711 
	C128.268036,130.634171 128.254547,151.117996 128.375641,171.600998 
	C128.473099,188.087021 128.733322,204.572083 128.591400,221.472748 
	C119.841034,215.751709 111.424477,209.610168 102.999138,203.480713 
	C93.641533,196.673080 84.275887,189.876480 74.913742,183.075058 
	C64.032486,174.960510 52.936428,167.108551 42.440540,158.522873 
	C40.181538,156.675003 39.380035,152.233719 39.119133,148.892441 
	C37.851940,132.664185 37.037849,116.401093 35.983963,100.155495 
	C35.047997,85.727638 34.007977,71.306534 33.432552,56.502518 
	C54.036041,67.727356 74.209778,79.351456 94.410049,90.929268 
	C105.658340,97.376236 116.950829,103.746101 128.223404,110.150711 
M78.874695,98.632912 
	C67.855553,91.716446 56.836407,84.799973 45.198055,77.494835 
	C46.828445,100.152710 48.311367,121.741791 50.066288,143.308746 
	C50.208374,145.054932 51.875217,147.106232 53.406651,148.245041 
	C72.644173,162.550323 91.984200,176.717819 111.312477,190.900833 
	C112.301216,191.626389 113.420937,192.173447 114.933144,193.073517 
	C114.933144,169.472580 114.993698,146.516098 114.792015,123.561943 
	C114.779060,122.088402 113.035744,120.172386 111.594109,119.242188 
	C100.966812,112.385078 90.211510,105.726349 78.874695,98.632912 
z"/>
<path fill="#DBECF9" opacity="1.000000" stroke="none" 
	d="
M128.551147,110.044983 
	C116.950829,103.746101 105.658340,97.376236 94.410049,90.929268 
	C74.209778,79.351456 54.036041,67.727356 33.511887,56.038864 
	C33.994797,54.995815 34.625267,53.597340 35.667656,53.142139 
	C55.798832,44.351028 75.998009,35.715767 96.139000,26.946911 
	C105.560638,22.844980 114.791344,18.285053 124.322433,14.466464 
	C126.993126,13.396464 130.845581,13.232710 133.439026,14.337000 
	C153.942566,23.067421 174.308472,32.125374 194.640457,41.252487 
	C204.489899,45.673931 214.175613,50.460098 223.869476,55.444130 
	C209.047623,64.166893 194.272125,72.492203 179.541092,80.895515 
	C162.633102,90.540680 145.764557,100.254982 128.551147,110.044983 
M167.899429,73.374809 
	C177.935272,67.532257 187.971100,61.689705 198.556030,55.527489 
	C175.359436,44.518002 152.849136,33.771046 130.233078,23.251461 
	C128.821106,22.594704 126.398041,23.321922 124.752876,24.076050 
	C103.730843,33.712399 82.762794,43.466606 61.790306,53.210819 
	C60.532028,53.795444 59.352188,54.548897 57.704933,55.462887 
	C80.865334,68.843597 103.457054,81.952721 126.160820,94.864830 
	C127.461777,95.604721 130.006393,95.320107 131.415359,94.525253 
	C143.445328,87.738762 155.346481,80.723923 167.899429,73.374809 
z"/>
<path fill="#9BB5D3" opacity="1.000000" stroke="none" 
	d="
M74.776985,183.469879 
	C84.275887,189.876480 93.641533,196.673080 102.999138,203.480713 
	C111.424477,209.610168 119.841034,215.751709 128.602936,221.940903 
	C136.606613,216.513062 144.306641,211.084122 151.921783,205.538635 
	C162.101761,198.125397 172.215912,190.621750 182.700211,183.099808 
	C183.330032,187.713730 183.617966,192.384781 183.534241,197.660004 
	C182.206482,200.711166 181.617157,203.394363 180.223007,205.559280 
	C176.574799,211.224380 173.302399,217.403992 168.573105,222.047180 
	C156.450256,233.949280 141.137161,237.905106 124.507874,236.953491 
	C105.752281,235.880188 83.762878,225.107910 76.610733,203.513702 
	C76.178925,202.209930 75.032265,201.142929 74.218216,199.965759 
	C74.358887,194.598740 74.499557,189.231735 74.776985,183.469879 
z"/>
<path fill="#88A1B7" opacity="1.000000" stroke="none" 
	d="
M74.126831,200.391937 
	C75.032265,201.142929 76.178925,202.209930 76.610733,203.513702 
	C83.762878,225.107910 105.752281,235.880188 124.507874,236.953491 
	C141.137161,237.905106 156.450256,233.949280 168.573105,222.047180 
	C173.302399,217.403992 176.574799,211.224380 180.223007,205.559280 
	C181.617157,203.394363 182.206482,200.711166 183.472137,198.114929 
	C184.048416,208.768951 180.377625,218.216507 173.262619,226.151550 
	C161.840927,238.889618 147.600067,244.881775 130.258713,245.213074 
	C113.926224,245.525131 99.754799,240.914032 87.945435,230.091919 
	C79.578979,222.424896 74.275810,212.662781 74.126831,200.391937 
z"/>
<path fill="#143557" opacity="1.000000" stroke="none" 
	d="
M207.045227,138.913605 
	C207.480270,143.596588 205.669861,146.317291 202.159164,148.851776 
	C183.515945,162.310928 165.078918,176.055634 146.567062,189.696823 
	C145.130020,190.755768 143.666855,191.779251 141.599915,193.260651 
	C141.433792,191.095535 141.232956,189.687332 141.231598,188.278915 
	C141.211380,167.446991 141.138382,146.614288 141.339920,125.784302 
	C141.360153,123.693756 142.497162,120.702431 144.103897,119.676598 
	C165.587555,105.960182 187.246536,92.518349 208.869293,79.020058 
	C209.272263,78.768501 209.765121,78.660988 211.190262,78.108795 
	C209.794266,98.551857 208.431473,118.508453 207.045227,138.913605 
z"/>
<path fill="#183A63" opacity="1.000000" stroke="none" 
	d="
M79.185593,98.819046 
	C90.211510,105.726349 100.966812,112.385078 111.594109,119.242188 
	C113.035744,120.172386 114.779060,122.088402 114.792015,123.561943 
	C114.993698,146.516098 114.933144,169.472580 114.933144,193.073517 
	C113.420937,192.173447 112.301216,191.626389 111.312477,190.900833 
	C91.984200,176.717819 72.644173,162.550323 53.406651,148.245041 
	C51.875217,147.106232 50.208374,145.054932 50.066288,143.308746 
	C48.311367,121.741791 46.828445,100.152710 45.198055,77.494835 
	C56.836407,84.799973 67.855553,91.716446 79.185593,98.819046 
z"/>
<path fill="#1D4770" opacity="1.000000" stroke="none" 
	d="
M167.592804,73.576126 
	C155.346481,80.723923 143.445328,87.738762 131.415359,94.525253 
	C130.006393,95.320107 127.461777,95.604721 126.160820,94.864830 
	C103.457054,81.952721 80.865334,68.843597 57.704933,55.462887 
	C59.352188,54.548897 60.532028,53.795444 61.790306,53.210819 
	C82.762794,43.466606 103.730843,33.712399 124.752876,24.076050 
	C126.398041,23.321922 128.821106,22.594704 130.233078,23.251461 
	C152.849136,33.771046 175.359436,44.518002 198.556030,55.527489 
	C187.971100,61.689705 177.935272,67.532257 167.592804,73.576126 
M181.326553,54.184475 
	C165.396545,46.663681 149.419083,39.240578 133.575333,31.542267 
	C130.282166,29.942154 127.696106,29.750992 124.312515,31.383730 
	C108.447762,39.039219 92.435204,46.388298 76.483849,53.864754 
	C75.203835,54.464703 73.987640,55.200809 72.167847,56.183609 
	C90.518433,66.577469 108.235916,76.691437 126.089684,86.558807 
	C127.361397,87.261650 129.897507,86.638123 131.399307,85.815956 
	C148.167206,76.636269 164.848587,67.298492 181.547302,57.992619 
	C182.472977,57.476765 183.346161,56.866756 184.723007,55.998283 
	C183.384415,55.287647 182.685425,54.916569 181.326553,54.184475 
z"/>
<path fill="#F0F3F6" opacity="1.000000" stroke="none" 
	d="
M181.656494,54.364983 
	C182.685425,54.916569 183.384415,55.287647 184.723007,55.998283 
	C183.346161,56.866756 182.472977,57.476765 181.547302,57.992619 
	C164.848587,67.298492 148.167206,76.636269 131.399307,85.815956 
	C129.897507,86.638123 127.361397,87.261650 126.089684,86.558807 
	C108.235916,76.691437 90.518433,66.577469 72.167847,56.183609 
	C73.987640,55.200809 75.203835,54.464703 76.483849,53.864754 
	C92.435204,46.388298 108.447762,39.039219 124.312515,31.383730 
	C127.696106,29.750992 130.282166,29.942154 133.575333,31.542267 
	C149.419083,39.240578 165.396545,46.663681 181.656494,54.364983 
M151.415298,49.142174 
	C151.415298,49.142174 151.328629,49.126068 150.903839,49.663593 
	C146.466858,55.435337 142.029877,61.207077 136.950027,67.815079 
	C141.111023,69.429970 145.578125,72.885773 147.987473,71.795250 
	C157.502609,67.488495 166.372253,61.755615 176.255875,56.109222 
	C160.108459,48.580063 144.940201,41.482159 129.729385,34.476669 
	C128.797470,34.047462 127.382835,33.990936 126.443123,34.374413 
	C122.927643,35.809002 119.516342,37.498848 115.658089,39.281425 
	C118.406235,41.055935 120.717262,42.548195 123.245064,44.180431 
	C120.681206,46.938828 118.362770,49.433186 116.044334,51.927540 
	C116.246323,52.256397 116.448311,52.585251 116.650299,52.914108 
	C124.652283,49.880329 132.654266,46.846546 140.656250,43.812767 
	C140.869232,44.140579 141.082230,44.468391 141.295212,44.796204 
	C139.012833,47.780155 136.730453,50.764103 134.448074,53.748051 
	C138.986725,52.832249 143.069275,51.099766 147.235580,49.599915 
	C148.542068,49.129585 150.073914,49.285263 151.415298,49.142174 
M123.145653,62.141392 
	C123.145653,62.141392 122.894455,61.902035 123.015213,61.229553 
	C125.327637,58.320816 127.640060,55.412083 129.952484,52.503345 
	C129.774582,52.233860 129.596695,51.964375 129.418808,51.694889 
	C120.516678,54.981728 111.614548,58.268562 102.712410,61.555401 
	C102.281898,60.857265 101.851395,60.159126 101.420883,59.460991 
	C106.716019,54.514900 112.011162,49.568810 118.047318,43.930546 
	C114.536652,43.044224 111.381424,41.103798 109.395309,41.940048 
	C99.710693,46.017731 90.338448,50.837273 80.071564,55.771152 
	C95.951187,64.963676 111.003548,73.713928 126.125481,82.342224 
	C127.054352,82.872208 128.773209,82.884308 129.713821,82.376564 
	C133.718964,80.214577 137.569443,77.766083 141.978897,75.120689 
	C138.131699,72.728981 134.941284,70.745583 131.531052,68.625519 
	C134.545715,64.710930 137.347748,61.072433 140.990738,56.341942 
	C134.263687,58.651382 128.829330,60.517029 123.145653,62.141392 
z"/>
<path fill="#1C466F" opacity="1.000000" stroke="none" 
	d="
M123.394989,62.382675 
	C128.829330,60.517029 134.263687,58.651382 140.990738,56.341942 
	C137.347748,61.072433 134.545715,64.710930 131.531052,68.625519 
	C134.941284,70.745583 138.131699,72.728981 141.978897,75.120689 
	C137.569443,77.766083 133.718964,80.214577 129.713821,82.376564 
	C128.773209,82.884308 127.054352,82.872208 126.125481,82.342224 
	C111.003548,73.713928 95.951187,64.963676 80.071564,55.771152 
	C90.338448,50.837273 99.710693,46.017731 109.395309,41.940048 
	C111.381424,41.103798 114.536652,43.044224 118.047318,43.930546 
	C112.011162,49.568810 106.716019,54.514900 101.420883,59.460991 
	C101.851395,60.159126 102.281898,60.857265 102.712410,61.555401 
	C111.614548,58.268562 120.516678,54.981728 129.418808,51.694889 
	C129.596695,51.964375 129.774582,52.233860 129.952484,52.503345 
	C127.640060,55.412083 125.327637,58.320816 122.708824,61.645702 
	C122.390221,62.280190 122.378006,62.498528 122.365791,62.716866 
	C122.708855,62.605465 123.051918,62.494068 123.394989,62.382675 
z"/>
<path fill="#1C466F" opacity="1.000000" stroke="none" 
	d="
M151.502609,49.154400 
	C150.073914,49.285263 148.542068,49.129585 147.235580,49.599915 
	C143.069275,51.099766 138.986725,52.832249 134.448074,53.748051 
	C136.730453,50.764103 139.012833,47.780155 141.295212,44.796204 
	C141.082230,44.468391 140.869232,44.140579 140.656250,43.812767 
	C132.654266,46.846546 124.652283,49.880329 116.650299,52.914108 
	C116.448311,52.585251 116.246323,52.256397 116.044334,51.927540 
	C118.362770,49.433186 120.681206,46.938828 123.245064,44.180431 
	C120.717262,42.548195 118.406235,41.055935 115.658089,39.281425 
	C119.516342,37.498848 122.927643,35.809002 126.443123,34.374413 
	C127.382835,33.990936 128.797470,34.047462 129.729385,34.476669 
	C144.940201,41.482159 160.108459,48.580063 176.255875,56.109222 
	C166.372253,61.755615 157.502609,67.488495 147.987473,71.795250 
	C145.578125,72.885773 141.111023,69.429970 136.950027,67.815079 
	C142.029877,61.207077 146.466858,55.435337 151.217438,49.142929 
	C151.236710,48.597500 150.942398,48.572739 150.648071,48.547981 
	C150.932922,48.750118 151.217758,48.952259 151.502609,49.154400 
z"/>
<path fill="#F0F3F6" opacity="1.000000" stroke="none" 
	d="
M123.270325,62.262032 
	C123.051918,62.494068 122.708855,62.605465 122.365791,62.716866 
	C122.378006,62.498528 122.390221,62.280190 122.648445,61.981941 
	C122.894455,61.902035 123.145653,62.141392 123.270325,62.262032 
z"/>
<path fill="#F0F3F6" opacity="1.000000" stroke="none" 
	d="
M151.458954,49.148285 
	C151.217758,48.952259 150.932922,48.750118 150.648071,48.547981 
	C150.942398,48.572739 151.236710,48.597500 151.429840,48.874165 
	C151.328629,49.126068 151.415298,49.142174 151.458954,49.148285 
z"/>
</svg>